<?xml version="1.0" encoding="UTF-8"?>
<!DOCTYPE svg PUBLIC "-//W3C//DTD SVG 1.1//EN" "http://www.w3.org/Graphics/SVG/1.1/DTD/svg11.dtd">
<svg xmlns="http://www.w3.org/2000/svg" version="1.1" width="128px" height="134px" style="shape-rendering:geometricPrecision; text-rendering:geometricPrecision; image-rendering:optimizeQuality; fill-rule:evenodd; clip-rule:evenodd" xmlns:xlink="http://www.w3.org/1999/xlink">
<g><path style="opacity:0.859" fill="#98b8ae" d="M 101.5,31.5 C 100.508,31.3284 99.8417,31.6618 99.5,32.5C 97.8333,31.1667 96.1667,31.1667 94.5,32.5C 92.3023,32.5912 91.9689,31.9245 93.5,30.5C 96.3772,27.8728 99.0439,28.2061 101.5,31.5 Z"/></g>
<g><path style="opacity:0.235" fill="#94bbae" d="M 40.5,31.5 C 41.9943,30.6014 43.4943,30.9347 45,32.5C 45.7805,33.9437 45.6139,35.277 44.5,36.5C 43.8658,34.2276 42.5324,32.5609 40.5,31.5 Z"/></g>
<g><path style="opacity:0.718" fill="#a8c4bd" d="M 93.5,30.5 C 91.9689,31.9245 92.3023,32.5912 94.5,32.5C 94.5,33.1667 94.1667,33.5 93.5,33.5C 92.9569,33.56 92.6236,33.8933 92.5,34.5C 93.6016,35.1757 94.6016,35.8423 95.5,36.5C 93.8333,36.5 92.1667,36.5 90.5,36.5C 89.9569,36.44 89.6236,36.1067 89.5,35.5C 90.1539,33.1419 91.4872,31.4752 93.5,30.5 Z"/></g>
<g><path style="opacity:0.729" fill="#8fb4a7" d="M 101.5,31.5 C 102.167,31.5 102.5,31.8333 102.5,32.5C 102.672,33.4916 102.338,34.1583 101.5,34.5C 100.5,34.1667 99.8333,33.5 99.5,32.5C 99.8417,31.6618 100.508,31.3284 101.5,31.5 Z"/></g>
<g><path style="opacity:0.545" fill="#b8d3ca" d="M 102.5,32.5 C 104.739,34.0012 104.739,35.3345 102.5,36.5C 101.702,36.0431 101.369,35.3764 101.5,34.5C 102.338,34.1583 102.672,33.4916 102.5,32.5 Z"/></g>
<g><path style="opacity:0.184" fill="#d5e6e1" d="M 93.5,33.5 C 95.2922,34.3091 97.2922,34.8091 99.5,35C 99.8333,35.3333 100.167,35.6667 100.5,36C 99.552,36.4828 98.552,36.6495 97.5,36.5C 96.8333,36.5 96.1667,36.5 95.5,36.5C 94.6016,35.8423 93.6016,35.1757 92.5,34.5C 92.6236,33.8933 92.9569,33.56 93.5,33.5 Z"/></g>
<g><path style="opacity:0.71" fill="#aec8c0" d="M 66.5,39.5 C 65.7784,39.0825 65.2784,38.4158 65,37.5C 64.5357,38.0944 64.369,38.7611 64.5,39.5C 63.3974,36.8264 64.3974,34.8264 67.5,33.5C 68.3081,33.8076 68.9747,34.3076 69.5,35C 67.5614,35.9078 66.5614,37.4078 66.5,39.5 Z"/></g>
<g><path style="opacity:0.018" fill="#e2eae8" d="M 40.5,38.5 C 39.5,38.5 38.5,38.5 37.5,38.5C 37.4226,37.2502 36.756,36.4169 35.5,36C 37.8333,35.3333 40.1667,35.3333 42.5,36C 41.244,36.4169 40.5774,37.2502 40.5,38.5 Z"/></g>
<g><path style="opacity:0.275" fill="#daf3ee" d="M 90.5,36.5 C 92.1667,36.5 93.8333,36.5 95.5,36.5C 96.1667,36.5 96.8333,36.5 97.5,36.5C 96.8333,37.1667 96.1667,37.8333 95.5,38.5C 94.1667,38.5 92.8333,38.5 91.5,38.5C 91.1667,37.8333 90.8333,37.1667 90.5,36.5 Z"/></g>
<g><path style="opacity:0.675" fill="#b6d5ca" d="M 37.5,38.5 C 38.5,38.5 39.5,38.5 40.5,38.5C 41.8734,38.3433 43.2068,38.51 44.5,39C 44.1667,39.3333 43.8333,39.6667 43.5,40C 44.4158,40.2784 45.0825,40.7784 45.5,41.5C 45.1667,41.5 44.8333,41.5 44.5,41.5C 41.9897,41.0024 39.4897,40.3357 37,39.5C 35.6153,39.5143 34.4486,39.8476 33.5,40.5C 32.9569,40.44 32.6236,40.1067 32.5,39.5C 34.0453,38.5481 35.712,38.2148 37.5,38.5 Z"/></g>
<g><path style="opacity:0.816" fill="#a3c4b9" d="M 66.5,39.5 C 67.675,39.281 68.675,39.6143 69.5,40.5C 68.2086,41.5272 68.2086,42.5272 69.5,43.5C 68.5,43.5 67.5,43.5 66.5,43.5C 66.2671,41.9382 65.6005,40.6049 64.5,39.5C 64.369,38.7611 64.5357,38.0944 65,37.5C 65.2784,38.4158 65.7784,39.0825 66.5,39.5 Z"/></g>
<g><path style="opacity:0.69" fill="#bcd7cf" d="M 98.5,38.5 C 99.8734,38.3433 101.207,38.51 102.5,39C 102.167,39.3333 101.833,39.6667 101.5,40C 102.416,40.2784 103.082,40.7784 103.5,41.5C 101.452,41.1596 100.452,41.4929 100.5,42.5C 98.8333,43.8333 97.1667,43.8333 95.5,42.5C 96.791,42.7373 97.791,42.404 98.5,41.5C 98.5,40.5 98.5,39.5 98.5,38.5 Z"/></g>
<g><path style="opacity:0.063" fill="#d7f2ed" d="M 91.5,38.5 C 92.8021,40.0276 94.4687,41.0276 96.5,41.5C 94.5,41.5 92.5,41.5 90.5,41.5C 90.2627,40.209 90.596,39.209 91.5,38.5 Z"/></g>
<g><path style="opacity:0.663" fill="#8db4a8" d="M 91.5,38.5 C 92.8333,38.5 94.1667,38.5 95.5,38.5C 96.5,38.5 97.5,38.5 98.5,38.5C 98.5,39.5 98.5,40.5 98.5,41.5C 97.8333,41.5 97.1667,41.5 96.5,41.5C 94.4687,41.0276 92.8021,40.0276 91.5,38.5 Z"/></g>
<g><path style="opacity:0.678" fill="#98c5b7" d="M 33.5,40.5 C 35.7812,40.0773 37.4479,40.744 38.5,42.5C 36.6203,42.2291 35.287,42.8958 34.5,44.5C 34.1667,44.5 33.8333,44.5 33.5,44.5C 33.5,43.5 33.5,42.5 33.5,41.5C 33.5,41.1667 33.5,40.8333 33.5,40.5 Z"/></g>
<g><path style="opacity:0.916" fill="#7fa99b" d="M 33.5,40.5 C 34.4486,39.8476 35.6153,39.5143 37,39.5C 39.4897,40.3357 41.9897,41.0024 44.5,41.5C 44.5,41.8333 44.5,42.1667 44.5,42.5C 43.1667,42.5 41.8333,42.5 40.5,42.5C 39.6043,43.5063 38.9377,43.5063 38.5,42.5C 37.4479,40.744 35.7812,40.0773 33.5,40.5 Z"/></g>
<g><path style="opacity:0.739" fill="#a0c3b7" d="M 90.5,41.5 C 92.5,41.5 94.5,41.5 96.5,41.5C 97.1667,41.5 97.8333,41.5 98.5,41.5C 97.791,42.404 96.791,42.7373 95.5,42.5C 94.3569,42.9081 93.3569,43.5748 92.5,44.5C 93.7537,46.6431 93.7537,48.6431 92.5,50.5C 92.0623,49.4937 91.3957,49.4937 90.5,50.5C 89.8885,47.696 89.8885,44.696 90.5,41.5 Z"/></g>
<g><path style="opacity:0.161" fill="#c4e6dc" d="M 40.5,42.5 C 41.8333,42.5 43.1667,42.5 44.5,42.5C 44.5,46.1667 44.5,49.8333 44.5,53.5C 44.1667,53.5 43.8333,53.5 43.5,53.5C 43.5,50.1667 43.5,46.8333 43.5,43.5C 42.209,43.7373 41.209,43.404 40.5,42.5 Z"/></g>
<g><path style="opacity:0.69" fill="#9fbbb2" d="M 44.5,41.5 C 44.8333,41.5 45.1667,41.5 45.5,41.5C 45.8415,43.6775 45.8415,46.0108 45.5,48.5C 45.7845,50.4147 45.4511,52.0813 44.5,53.5C 44.5,49.8333 44.5,46.1667 44.5,42.5C 44.5,42.1667 44.5,41.8333 44.5,41.5 Z"/></g>
<g><path style="opacity:1" fill="#71a694" d="M 66.5,43.5 C 67.5,43.5 68.5,43.5 69.5,43.5C 68.8333,44.1667 68.1667,44.8333 67.5,45.5C 67.1667,45.5 66.8333,45.5 66.5,45.5C 65.5084,45.6716 64.8417,45.3382 64.5,44.5C 64.8417,43.6618 65.5084,43.3284 66.5,43.5 Z"/></g>
<g><path style="opacity:0.686" fill="#a2c4ba" d="M 69.5,43.5 C 71.153,43.6596 72.4863,44.3263 73.5,45.5C 72.5084,45.3284 71.8417,45.6618 71.5,46.5C 70.2921,45.7659 68.9587,45.4326 67.5,45.5C 68.1667,44.8333 68.8333,44.1667 69.5,43.5 Z"/></g>
<g><path style="opacity:0.741" fill="#96b6ac" d="M 64.5,44.5 C 64.8417,45.3382 65.5084,45.6716 66.5,45.5C 65.7095,46.4013 64.7095,47.0679 63.5,47.5C 62.5084,47.6716 61.8417,47.3382 61.5,46.5C 61.9731,45.0937 62.9731,44.427 64.5,44.5 Z"/></g>
<g><path style="opacity:0.861" fill="#8eb3a7" d="M 73.5,45.5 C 74.5,45.8333 75.1667,46.5 75.5,47.5C 74.5,47.5 73.5,47.5 72.5,47.5C 71.8333,47.5 71.5,47.1667 71.5,46.5C 71.8417,45.6618 72.5084,45.3284 73.5,45.5 Z"/></g>
<g><path style="opacity:0.773" fill="#a6c2bb" d="M 33.5,41.5 C 33.5,42.5 33.5,43.5 33.5,44.5C 33.5,46.5 33.5,48.5 33.5,50.5C 33.1667,50.5 32.8333,50.5 32.5,50.5C 31.9033,50.2648 31.5699,49.7648 31.5,49C 32.0161,46.3309 32.6827,43.8309 33.5,41.5 Z"/></g>
<g><path style="opacity:0.78" fill="#93c2b3" d="M 33.5,44.5 C 33.8333,44.5 34.1667,44.5 34.5,44.5C 34.8339,46.6678 34.8339,48.6678 34.5,50.5C 34.1667,50.5 33.8333,50.5 33.5,50.5C 33.5,48.5 33.5,46.5 33.5,44.5 Z"/></g>
<g><path style="opacity:0.98" fill="#93bbad" d="M 61.5,46.5 C 61.8417,47.3382 62.5084,47.6716 63.5,47.5C 61.3512,49.4093 59.0179,51.076 56.5,52.5C 55.5084,52.6716 54.8417,52.3382 54.5,51.5C 56.5496,49.4525 58.883,47.7859 61.5,46.5 Z"/></g>
<g><path style="opacity:0.733" fill="#9abaaf" d="M 103.5,41.5 C 103.5,43.8333 103.5,46.1667 103.5,48.5C 103.5,49.8333 103.5,51.1667 103.5,52.5C 102.833,51.8333 102.167,51.1667 101.5,50.5C 101.806,47.6146 101.473,44.9479 100.5,42.5C 100.452,41.4929 101.452,41.1596 103.5,41.5 Z"/></g>
<g><path style="opacity:0.678" fill="#a9bfb8" d="M 72.5,47.5 C 73.5,47.5 74.5,47.5 75.5,47.5C 77.4044,47.7376 78.7377,48.7376 79.5,50.5C 78.8333,50.5 78.5,50.8333 78.5,51.5C 76.2048,50.5254 74.2048,49.1921 72.5,47.5 Z"/></g>
<g><path style="opacity:0.8" fill="#8fafa3" d="M 92.5,50.5 C 92.5,51.5 92.5,52.5 92.5,53.5C 91.8333,53.5 91.1667,53.5 90.5,53.5C 89.1667,52.5 89.1667,51.5 90.5,50.5C 91.3957,49.4937 92.0623,49.4937 92.5,50.5 Z"/></g>
<g><path style="opacity:0.835" fill="#afc7be" d="M 78.5,51.5 C 78.5,50.8333 78.8333,50.5 79.5,50.5C 81.0269,50.427 82.0269,51.0937 82.5,52.5C 81.6618,52.8417 81.3284,53.5084 81.5,54.5C 80.2719,53.6935 79.2719,52.6935 78.5,51.5 Z"/></g>
<g><path style="opacity:0.841" fill="#afcac1" d="M 54.5,51.5 C 54.8417,52.3382 55.5084,52.6716 56.5,52.5C 54.4565,54.208 52.7899,56.208 51.5,58.5C 51.1583,57.6618 50.4916,57.3284 49.5,57.5C 50.4431,54.8908 52.1097,52.8908 54.5,51.5 Z"/></g>
<g><path style="opacity:0.635" fill="#bcdcd2" d="M 101.5,50.5 C 102.167,51.1667 102.833,51.8333 103.5,52.5C 103.5,53.1667 103.5,53.8333 103.5,54.5C 102.532,56.6074 102.198,58.9407 102.5,61.5C 101.126,57.8948 100.793,54.2281 101.5,50.5 Z"/></g>
<g><path style="opacity:0.522" fill="#a6c4bc" d="M 32.5,50.5 C 32.8333,50.5 33.1667,50.5 33.5,50.5C 33.8168,54.7016 33.4834,58.7016 32.5,62.5C 31.8981,58.4021 31.8981,54.4021 32.5,50.5 Z"/></g>
<g><path style="opacity:0.894" fill="#a6c5ba" d="M 82.5,52.5 C 86.6111,55.3887 88.6111,59.3887 88.5,64.5C 87.5,64.5 86.5,64.5 85.5,64.5C 85.8144,60.4682 84.4811,57.1348 81.5,54.5C 81.3284,53.5084 81.6618,52.8417 82.5,52.5 Z"/></g>
<g><path style="opacity:0.275" fill="#c8e1d9" d="M 45.5,48.5 C 46.4767,51.2869 46.81,54.2869 46.5,57.5C 46.1667,57.5 45.8333,57.5 45.5,57.5C 44.9553,53.8284 44.6219,54.1617 44.5,58.5C 43.7656,57.1225 43.0989,55.6225 42.5,54C 42.7284,53.6012 43.0618,53.4346 43.5,53.5C 43.8333,53.5 44.1667,53.5 44.5,53.5C 45.4511,52.0813 45.7845,50.4147 45.5,48.5 Z"/></g>
<g><path style="opacity:0.871" fill="#9db6ad" d="M 49.5,57.5 C 50.4916,57.3284 51.1583,57.6618 51.5,58.5C 51.4431,59.609 51.1098,60.609 50.5,61.5C 49.596,60.791 49.2627,59.791 49.5,58.5C 49.5,58.1667 49.5,57.8333 49.5,57.5 Z"/></g>
<g><path style="opacity:0.733" fill="#81ad9e" d="M 90.5,53.5 C 91.1667,53.5 91.8333,53.5 92.5,53.5C 92.6655,57.5138 92.4988,61.5138 92,65.5C 91.6174,64.944 91.1174,64.6107 90.5,64.5C 90.5,60.8333 90.5,57.1667 90.5,53.5 Z"/></g>
<g><path style="opacity:0.914" fill="#95b5ac" d="M 45.5,57.5 C 45.8431,60.6533 45.5098,62.9866 44.5,64.5C 43.7249,62.3881 43.7249,60.3881 44.5,58.5C 44.6219,54.1617 44.9553,53.8284 45.5,57.5 Z"/></g>
<g><path style="opacity:0.827" fill="#adc5bd" d="M 49.5,58.5 C 49.2627,59.791 49.596,60.791 50.5,61.5C 50.5,62.5 50.5,63.5 50.5,64.5C 50.1667,64.5 49.8333,64.5 49.5,64.5C 49.1667,64.5 48.8333,64.5 48.5,64.5C 47.839,62.4436 48.1723,60.4436 49.5,58.5 Z"/></g>
<g><path style="opacity:0.824" fill="#9ab7ae" d="M 103.5,54.5 C 103.817,58.7016 103.483,62.7016 102.5,66.5C 101.904,65.0646 101.904,63.398 102.5,61.5C 102.198,58.9407 102.532,56.6074 103.5,54.5 Z"/></g>
<g><path style="opacity:0.369" fill="#b1cfc7" d="M 64.5,64.5 C 64.5,65.1667 64.1667,65.5 63.5,65.5C 61.8828,66.038 60.2161,66.3713 58.5,66.5C 58.5,65.8333 58.5,65.1667 58.5,64.5C 60.3888,63.2584 62.3888,63.2584 64.5,64.5 Z"/></g>
<g><path style="opacity:0.125" fill="#dae9e7" d="M 68.5,64.5 C 67.8333,64.5 67.5,64.8333 67.5,65.5C 66.1667,65.8333 64.8333,66.1667 63.5,66.5C 63.5,66.1667 63.5,65.8333 63.5,65.5C 64.1667,65.5 64.5,65.1667 64.5,64.5C 65.9613,63.3143 67.2946,63.3143 68.5,64.5 Z"/></g>
<g><path style="opacity:0.012" fill="#fefffe" d="M 74.5,63.5 C 75.8333,64.1667 75.8333,64.1667 74.5,63.5 Z"/></g>
<g><path style="opacity:0.271" fill="#c0d4cb" d="M 67.5,65.5 C 67.5,64.8333 67.8333,64.5 68.5,64.5C 69.4959,64.5858 70.3292,64.2524 71,63.5C 71.7504,64.1258 72.5838,64.6258 73.5,65C 71.5273,65.4955 69.5273,65.6621 67.5,65.5 Z"/></g>
<g><path style="opacity:0.106" fill="#c9dbd7" d="M 48.5,64.5 C 48.8333,64.5 49.1667,64.5 49.5,64.5C 51.1667,65.1667 52.8333,65.8333 54.5,66.5C 53.5,66.5 52.5,66.5 51.5,66.5C 49.8212,66.7148 48.8212,66.0481 48.5,64.5 Z"/></g>
<g><path style="opacity:0.851" fill="#97b3ac" d="M 49.5,64.5 C 49.8333,64.5 50.1667,64.5 50.5,64.5C 53.1667,64.5 55.8333,64.5 58.5,64.5C 58.5,65.1667 58.5,65.8333 58.5,66.5C 57.1667,66.5 55.8333,66.5 54.5,66.5C 52.8333,65.8333 51.1667,65.1667 49.5,64.5 Z"/></g>
<g><path style="opacity:0.013" fill="#fefffe" d="M 63.5,65.5 C 63.5,65.8333 63.5,66.1667 63.5,66.5C 63.5,66.8333 63.5,67.1667 63.5,67.5C 61.5853,67.7845 59.9187,67.4511 58.5,66.5C 60.2161,66.3713 61.8828,66.038 63.5,65.5 Z"/></g>
<g><path style="opacity:0.204" fill="#cce0d9" d="M 103.5,48.5 C 104.492,55.6476 104.825,62.9809 104.5,70.5C 103.833,71.1667 103.167,71.8333 102.5,72.5C 102.5,70.5 102.5,68.5 102.5,66.5C 103.483,62.7016 103.817,58.7016 103.5,54.5C 103.5,53.8333 103.5,53.1667 103.5,52.5C 103.5,51.1667 103.5,49.8333 103.5,48.5 Z"/></g>
<g><path style="opacity:0.047" fill="#e5fdf8" d="M 51.5,66.5 C 52.5,66.5 53.5,66.5 54.5,66.5C 55.8333,66.5 57.1667,66.5 58.5,66.5C 59.9187,67.4511 61.5853,67.7845 63.5,67.5C 65.099,67.2322 66.4324,67.5655 67.5,68.5C 62.5,68.5 57.5,68.5 52.5,68.5C 52.1667,67.8333 51.8333,67.1667 51.5,66.5 Z"/></g>
<g><path style="opacity:0.737" fill="#afd0c6" d="M 92.5,53.5 C 93.8333,58.8333 93.8333,64.1667 92.5,69.5C 92.5,68.1667 91.8333,67.5 90.5,67.5C 89.375,66.6522 89.375,65.6522 90.5,64.5C 91.1174,64.6107 91.6174,64.944 92,65.5C 92.4988,61.5138 92.6655,57.5138 92.5,53.5 Z"/></g>
<g><path style="opacity:0.718" fill="#9fc3b9" d="M 33.5,50.5 C 33.8333,50.5 34.1667,50.5 34.5,50.5C 35.8333,57.1667 35.8333,63.8333 34.5,70.5C 33.8333,69.8333 33.1667,69.1667 32.5,68.5C 31.1667,66.5 31.1667,64.5 32.5,62.5C 33.4834,58.7016 33.8168,54.7016 33.5,50.5 Z"/></g>
<g><path style="opacity:0.255" fill="#c6d6d4" d="M 45.5,57.5 C 45.8333,57.5 46.1667,57.5 46.5,57.5C 46.5,61.8333 46.5,66.1667 46.5,70.5C 45.8333,71.1667 45.1667,71.8333 44.5,72.5C 44.1949,69.586 44.1949,66.9193 44.5,64.5C 45.5098,62.9866 45.8431,60.6533 45.5,57.5 Z"/></g>
<g><path style="opacity:0.047" fill="#e5f8f4" d="M 80.5,67.5 C 79.5,67.5 78.5,67.5 77.5,67.5C 74.6085,68.4025 71.6085,68.7359 68.5,68.5C 72.4023,66.5106 76.4023,66.1773 80.5,67.5 Z"/></g>
<g><path style="opacity:0.869" fill="#b6d5ca" d="M 77.5,67.5 C 78.5,67.5 79.5,67.5 80.5,67.5C 80.8333,67.5 81.1667,67.5 81.5,67.5C 81.5,68.1667 81.5,68.8333 81.5,69.5C 80.5,69.5 79.5,69.5 78.5,69.5C 78.1667,68.8333 77.8333,68.1667 77.5,67.5 Z"/></g>
<g><path style="opacity:1" fill="#8eaea4" d="M 52.5,68.5 C 57.5,68.5 62.5,68.5 67.5,68.5C 67.5,68.8333 67.5,69.1667 67.5,69.5C 67.5,69.8333 67.5,70.1667 67.5,70.5C 66.8333,70.5 66.1667,70.5 65.5,70.5C 60.1563,70.666 54.8229,70.4994 49.5,70C 49.1667,69.6667 48.8333,69.3333 48.5,69C 49.7932,68.51 51.1266,68.3433 52.5,68.5 Z"/></g>
<g><path style="opacity:1" fill="#7da295" d="M 77.5,67.5 C 77.8333,68.1667 78.1667,68.8333 78.5,69.5C 74.8333,69.5 71.1667,69.5 67.5,69.5C 67.5,69.1667 67.5,68.8333 67.5,68.5C 67.8333,68.5 68.1667,68.5 68.5,68.5C 71.6085,68.7359 74.6085,68.4025 77.5,67.5 Z"/></g>
<g><path style="opacity:0.617" fill="#eaf6f3" d="M 67.5,70.5 C 67.5,70.1667 67.5,69.8333 67.5,69.5C 71.1667,69.5 74.8333,69.5 78.5,69.5C 79.5,69.5 80.5,69.5 81.5,69.5C 81.5,70.1667 81.5,70.8333 81.5,71.5C 79.8333,71.5 78.1667,71.5 76.5,71.5C 73.7131,70.5233 70.7131,70.19 67.5,70.5 Z"/></g>
<g><path style="opacity:0.099" fill="#f6f9f8" d="M 81.5,67.5 C 82.4195,68.9215 84.0862,70.2548 86.5,71.5C 85.1667,71.5 83.8333,71.5 82.5,71.5C 82.1667,71.5 81.8333,71.5 81.5,71.5C 81.5,70.8333 81.5,70.1667 81.5,69.5C 81.5,68.8333 81.5,68.1667 81.5,67.5 Z"/></g>
<g><path style="opacity:0.708" fill="#8fb3a7" d="M 90.5,67.5 C 91.8333,67.5 92.5,68.1667 92.5,69.5C 92.5,70.1667 92.5,70.8333 92.5,71.5C 91.5084,71.6716 90.8417,71.3382 90.5,70.5C 90.5,69.5 90.5,68.5 90.5,67.5 Z"/></g>
<g><path style="opacity:0.019" fill="#f9fffe" d="M 65.5,70.5 C 66.1667,70.5 66.8333,70.5 67.5,70.5C 70.7131,70.19 73.7131,70.5233 76.5,71.5C 76.1667,71.5 75.8333,71.5 75.5,71.5C 73.8333,71.5 72.1667,71.5 70.5,71.5C 68.4352,71.5172 66.4352,71.8505 64.5,72.5C 64.0618,72.5654 63.7284,72.3988 63.5,72C 64.4158,71.7216 65.0825,71.2216 65.5,70.5 Z"/></g>
<g><path style="opacity:0.522" fill="#aac5bf" d="M 32.5,68.5 C 33.1667,69.1667 33.8333,69.8333 34.5,70.5C 34.8879,72.6409 34.8879,74.6409 34.5,76.5C 33.8333,77.5 33.1667,78.5 32.5,79.5C 31.6689,75.9117 31.6689,72.2451 32.5,68.5 Z"/></g>
<g><path style="opacity:0.098" fill="#d3e5e1" d="M 46.5,70.5 C 46.5774,71.7498 47.244,72.5831 48.5,73C 48.2716,73.3988 47.9382,73.5654 47.5,73.5C 47.1667,73.5 46.8333,73.5 46.5,73.5C 45.6618,73.8417 45.3284,74.5084 45.5,75.5C 44.596,74.791 44.2627,73.791 44.5,72.5C 45.1667,71.8333 45.8333,71.1667 46.5,70.5 Z"/></g>
<g><path style="opacity:1" fill="#81a498" d="M 82.5,71.5 C 83.8333,71.5 85.1667,71.5 86.5,71.5C 87.1667,71.5 87.8333,71.5 88.5,71.5C 89.3382,71.8417 89.6716,72.5084 89.5,73.5C 89.1667,73.5 88.8333,73.5 88.5,73.5C 88.1667,73.5 87.8333,73.5 87.5,73.5C 85.8333,72.8333 84.1667,72.1667 82.5,71.5 Z"/></g>
<g><path style="opacity:0.255" fill="#d8e6e1" d="M 70.5,71.5 C 70.5,71.8333 70.5,72.1667 70.5,72.5C 68.3888,73.7416 66.3888,73.7416 64.5,72.5C 66.4352,71.8505 68.4352,71.5172 70.5,71.5 Z"/></g>
<g><path style="opacity:0.224" fill="#daece5" d="M 70.5,71.5 C 72.1667,71.5 73.8333,71.5 75.5,71.5C 75.5,71.8333 75.5,72.1667 75.5,72.5C 73.8333,73.8333 72.1667,73.8333 70.5,72.5C 70.5,72.1667 70.5,71.8333 70.5,71.5 Z"/></g>
<g><path style="opacity:0.149" fill="#c4e3d7" d="M 75.5,72.5 C 75.5,72.1667 75.5,71.8333 75.5,71.5C 75.8333,71.5 76.1667,71.5 76.5,71.5C 78.1667,71.5 79.8333,71.5 81.5,71.5C 81.8333,71.5 82.1667,71.5 82.5,71.5C 84.1667,72.1667 85.8333,72.8333 87.5,73.5C 83.3998,73.7633 79.3998,73.4299 75.5,72.5 Z"/></g>
<g><path style="opacity:0.89" fill="#98c6b7" d="M 88.5,71.5 C 88.8417,70.6618 89.5084,70.3284 90.5,70.5C 90.8417,71.3382 91.5084,71.6716 92.5,71.5C 93.625,72.3478 93.625,73.3478 92.5,74.5C 91.5084,74.3284 90.8417,74.6618 90.5,75.5C 89.6618,75.1583 89.3284,74.4916 89.5,73.5C 89.6716,72.5084 89.3382,71.8417 88.5,71.5 Z"/></g>
<g><path style="opacity:0.149" fill="#d6e5df" d="M 104.5,70.5 C 104.769,72.4286 104.269,74.0953 103,75.5C 102.517,74.552 102.351,73.552 102.5,72.5C 103.167,71.8333 103.833,71.1667 104.5,70.5 Z"/></g>
<g><path style="opacity:0.996" fill="#91b5a7" d="M 92.5,74.5 C 92.9258,75.5279 92.9258,76.8612 92.5,78.5C 91.5987,77.7095 90.9321,76.7095 90.5,75.5C 90.8417,74.6618 91.5084,74.3284 92.5,74.5 Z"/></g>
<g><path style="opacity:0.306" fill="#b2d6cc" d="M 46.5,73.5 C 46.5,74.8333 46.5,76.1667 46.5,77.5C 45.6618,77.8417 45.3284,78.5084 45.5,79.5C 44.3143,78.2946 44.3143,76.9613 45.5,75.5C 45.3284,74.5084 45.6618,73.8417 46.5,73.5 Z"/></g>
<g><path style="opacity:0.173" fill="#cfd7d4" d="M 102.5,76.5 C 103.289,76.7828 103.956,77.2828 104.5,78C 103.184,78.5281 102.517,78.0281 102.5,76.5 Z"/></g>
<g><path style="opacity:0.82" fill="#86b1a3" d="M 88.5,73.5 C 88.8333,73.5 89.1667,73.5 89.5,73.5C 89.3284,74.4916 89.6618,75.1583 90.5,75.5C 90.9321,76.7095 91.5987,77.7095 92.5,78.5C 92.5,79.1667 92.5,79.8333 92.5,80.5C 91.8333,80.8333 91.1667,81.1667 90.5,81.5C 88.9296,80.3101 88.263,77.6434 88.5,73.5 Z"/></g>
<g><path style="opacity:0.522" fill="#a5bdb7" d="M 34.5,76.5 C 34.7508,79.2896 34.7508,82.2896 34.5,85.5C 33.8333,85.8333 33.1667,86.1667 32.5,86.5C 32.2847,83.8563 32.2847,81.523 32.5,79.5C 33.1667,78.5 33.8333,77.5 34.5,76.5 Z"/></g>
<g><path style="opacity:0.425" fill="#a7d0c4" d="M 46.5,77.5 C 46.8128,81.0419 46.4794,84.3752 45.5,87.5C 44.941,84.7242 44.941,82.0576 45.5,79.5C 45.3284,78.5084 45.6618,77.8417 46.5,77.5 Z"/></g>
<g><path style="opacity:0.951" fill="#97baae" d="M 70.5,79.5 C 67.075,79.3668 66.7417,80.0335 69.5,81.5C 68.5,81.5 67.5,81.5 66.5,81.5C 65.5084,81.6716 64.8417,81.3382 64.5,80.5C 65.1342,79.0532 66.3009,78.3866 68,78.5C 69.0698,78.528 69.9032,78.8614 70.5,79.5 Z"/></g>
<g><path style="opacity:0.694" fill="#b8dbd1" d="M 87.5,73.5 C 87.8333,73.5 88.1667,73.5 88.5,73.5C 88.263,77.6434 88.9296,80.3101 90.5,81.5C 90.2792,84.0972 89.7792,84.0972 89,81.5C 88.51,82.7932 88.3433,84.1266 88.5,85.5C 87.5166,81.7016 87.1832,77.7016 87.5,73.5 Z"/></g>
<g><path style="opacity:0.024" fill="#fefffe" d="M 103.5,80.5 C 104.833,81.1667 104.833,81.1667 103.5,80.5 Z"/></g>
<g><path style="opacity:0.992" fill="#8cb9ac" d="M 64.5,80.5 C 64.8417,81.3382 65.5084,81.6716 66.5,81.5C 65.7095,82.4013 64.7095,83.0679 63.5,83.5C 63.1667,82.8333 62.8333,82.1667 62.5,81.5C 62.8417,80.6618 63.5084,80.3284 64.5,80.5 Z"/></g>
<g><path style="opacity:0.973" fill="#9cc4b6" d="M 70.5,79.5 C 72.754,80.1237 74.4206,81.457 75.5,83.5C 74.5269,85.9479 74.1936,88.6146 74.5,91.5C 74.5,93.1667 74.5,94.8333 74.5,96.5C 73.8336,92.3155 73.1669,87.9822 72.5,83.5C 71.2613,83.0576 70.2613,82.3909 69.5,81.5C 66.7417,80.0335 67.075,79.3668 70.5,79.5 Z"/></g>
<g><path style="opacity:0.863" fill="#a5cabf" d="M 62.5,81.5 C 62.8333,82.1667 63.1667,82.8333 63.5,83.5C 62.8868,87.937 62.2202,92.2703 61.5,96.5C 61.5,96.1667 61.5,95.8333 61.5,95.5C 61.5,92.8333 61.5,90.1667 61.5,87.5C 61.7678,85.901 61.4345,84.5676 60.5,83.5C 60.8333,82.5 61.5,81.8333 62.5,81.5 Z"/></g>
<g><path style="opacity:0.686" fill="#8ab6a7" d="M 92.5,80.5 C 92.5,81.5 92.5,82.5 92.5,83.5C 91.4739,84.853 90.1405,85.853 88.5,86.5C 88.5,86.1667 88.5,85.8333 88.5,85.5C 88.3433,84.1266 88.51,82.7932 89,81.5C 89.7792,84.0972 90.2792,84.0972 90.5,81.5C 91.1667,81.1667 91.8333,80.8333 92.5,80.5 Z"/></g>
<g><path style="opacity:0.682" fill="#93b0a9" d="M 60.5,83.5 C 61.4345,84.5676 61.7678,85.901 61.5,87.5C 61.1667,87.5 60.8333,87.5 60.5,87.5C 59.3143,86.0387 59.3143,84.7054 60.5,83.5 Z"/></g>
<g><path style="opacity:0.525" fill="#98b5ad" d="M 34.5,85.5 C 34.5,86.8333 34.5,88.1667 34.5,89.5C 33.8333,90.1667 33.1667,90.8333 32.5,91.5C 32.5,89.8333 32.5,88.1667 32.5,86.5C 33.1667,86.1667 33.8333,85.8333 34.5,85.5 Z"/></g>
<g><path style="opacity:0.722" fill="#92bdaf" d="M 46.5,73.5 C 46.8333,73.5 47.1667,73.5 47.5,73.5C 48.8333,77.8333 48.8333,82.1667 47.5,86.5C 47.5,87.8333 47.5,89.1667 47.5,90.5C 47.1667,90.5 46.8333,90.5 46.5,90.5C 46.5,89.8333 46.1667,89.5 45.5,89.5C 45.5,88.8333 45.5,88.1667 45.5,87.5C 46.4794,84.3752 46.8128,81.0419 46.5,77.5C 46.5,76.1667 46.5,74.8333 46.5,73.5 Z"/></g>
<g><path style="opacity:0.729" fill="#b3ccc1" d="M 75.5,83.5 C 76.3796,85.1368 77.0463,86.9701 77.5,89C 77.4301,89.7648 77.0967,90.2648 76.5,90.5C 75.7814,88.2362 75.448,85.9029 75.5,83.5 Z"/></g>
<g><path style="opacity:0.847" fill="#74a493" d="M 75.5,83.5 C 75.448,85.9029 75.7814,88.2362 76.5,90.5C 75.8333,90.5 75.5,90.8333 75.5,91.5C 75.1667,91.5 74.8333,91.5 74.5,91.5C 74.1936,88.6146 74.5269,85.9479 75.5,83.5 Z"/></g>
<g><path style="opacity:0.455" fill="#a3c9bc" d="M 92.5,83.5 C 92.5,85.5 92.5,87.5 92.5,89.5C 91.7321,88.7375 91.2321,87.7375 91,86.5C 90.9977,89.0512 90.1644,91.0512 88.5,92.5C 88.5,90.5 88.5,88.5 88.5,86.5C 90.1405,85.853 91.4739,84.853 92.5,83.5 Z"/></g>
<g><path style="opacity:0.839" fill="#7ca599" d="M 46.5,90.5 C 46.8333,90.5 47.1667,90.5 47.5,90.5C 47.5,92.1667 47.5,93.8333 47.5,95.5C 49.7354,95.2053 51.7354,95.5386 53.5,96.5C 51.1667,96.5 48.8333,96.5 46.5,96.5C 46.5,94.5 46.5,92.5 46.5,90.5 Z"/></g>
<g><path style="opacity:0.31" fill="#b7e1d4" d="M 60.5,87.5 C 60.7214,90.2788 60.388,92.9455 59.5,95.5C 58.8333,95.5 58.5,95.1667 58.5,94.5C 59.0654,92.0479 59.7321,89.7146 60.5,87.5 Z"/></g>
<g><path style="opacity:0.78" fill="#88b0a2" d="M 92.5,89.5 C 92.5,90.5 92.5,91.5 92.5,92.5C 91.791,93.404 90.791,93.7373 89.5,93.5C 89.5,94.5 89.5,95.5 89.5,96.5C 87.1667,96.5 84.8333,96.5 82.5,96.5C 82.5,95.8333 82.5,95.1667 82.5,94.5C 85.0821,94.9746 87.0821,94.3079 88.5,92.5C 90.1644,91.0512 90.9977,89.0512 91,86.5C 91.2321,87.7375 91.7321,88.7375 92.5,89.5 Z"/></g>
<g><path style="opacity:0.6" fill="#9dbcb3" d="M 34.5,89.5 C 34.2865,91.1439 34.6198,92.6439 35.5,94C 38.3647,94.1829 41.0314,94.6829 43.5,95.5C 40.2234,95.7839 37.0567,95.4505 34,94.5C 33.5357,95.0944 33.369,95.7611 33.5,96.5C 31.655,95.0045 31.3217,93.3379 32.5,91.5C 33.1667,90.8333 33.8333,90.1667 34.5,89.5 Z"/></g>
<g><path style="opacity:0.343" fill="#add5ca" d="M 45.5,89.5 C 46.1667,89.5 46.5,89.8333 46.5,90.5C 46.5,92.5 46.5,94.5 46.5,96.5C 45.776,94.7816 45.1094,92.9483 44.5,91C 45.056,90.6174 45.3893,90.1174 45.5,89.5 Z"/></g>
<g><path style="opacity:0.263" fill="#c3d9d1" d="M 76.5,90.5 C 76.1568,92.4832 76.8235,93.8166 78.5,94.5C 78.5,94.8333 78.5,95.1667 78.5,95.5C 77.5,95.5 76.5,95.5 75.5,95.5C 75.5,94.1667 75.5,92.8333 75.5,91.5C 75.5,90.8333 75.8333,90.5 76.5,90.5 Z"/></g>
<g><path style="opacity:0.418" fill="#c0dbd3" d="M 47.5,86.5 C 48.4731,88.9479 48.8064,91.6146 48.5,94.5C 50.8333,94.5 53.1667,94.5 55.5,94.5C 55.5,95.1667 55.5,95.8333 55.5,96.5C 54.8333,96.5 54.1667,96.5 53.5,96.5C 51.7354,95.5386 49.7354,95.2053 47.5,95.5C 47.5,93.8333 47.5,92.1667 47.5,90.5C 47.5,89.1667 47.5,87.8333 47.5,86.5 Z"/></g>
<g><path style="opacity:0.957" fill="#6ea192" d="M 60.5,87.5 C 60.8333,87.5 61.1667,87.5 61.5,87.5C 61.5,90.1667 61.5,92.8333 61.5,95.5C 60.8333,95.5 60.1667,95.5 59.5,95.5C 60.388,92.9455 60.7214,90.2788 60.5,87.5 Z"/></g>
<g><path style="opacity:0.871" fill="#85a197" d="M 74.5,91.5 C 74.8333,91.5 75.1667,91.5 75.5,91.5C 75.5,92.8333 75.5,94.1667 75.5,95.5C 76.5,95.5 77.5,95.5 78.5,95.5C 79.1667,95.5 79.5,95.8333 79.5,96.5C 77.8333,96.5 76.1667,96.5 74.5,96.5C 74.5,94.8333 74.5,93.1667 74.5,91.5 Z"/></g>
<g><path style="opacity:0.671" fill="#a6c3b9" d="M 78.5,95.5 C 78.5,95.1667 78.5,94.8333 78.5,94.5C 79.8333,94.5 81.1667,94.5 82.5,94.5C 82.5,95.1667 82.5,95.8333 82.5,96.5C 81.5,96.5 80.5,96.5 79.5,96.5C 79.5,95.8333 79.1667,95.5 78.5,95.5 Z"/></g>
<g><path style="opacity:0.82" fill="#97cbb8" d="M 92.5,92.5 C 93.3382,92.8417 93.6716,93.5084 93.5,94.5C 92.1667,94.5 91.5,95.1667 91.5,96.5C 90.8333,96.5 90.1667,96.5 89.5,96.5C 89.5,95.5 89.5,94.5 89.5,93.5C 90.791,93.7373 91.791,93.404 92.5,92.5 Z"/></g>
<g><path style="opacity:0.678" fill="#80a296" d="M 43.5,95.5 C 40.9548,96.5036 37.6214,96.837 33.5,96.5C 33.369,95.7611 33.5357,95.0944 34,94.5C 37.0567,95.4505 40.2234,95.7839 43.5,95.5 Z"/></g>
<g><path style="opacity:0.702" fill="#90ada4" d="M 55.5,94.5 C 56.5,94.5 57.5,94.5 58.5,94.5C 58.5,95.1667 58.8333,95.5 59.5,95.5C 60.1667,95.5 60.8333,95.5 61.5,95.5C 61.5,95.8333 61.5,96.1667 61.5,96.5C 59.5,96.5 57.5,96.5 55.5,96.5C 55.5,95.8333 55.5,95.1667 55.5,94.5 Z"/></g>
<g><path style="opacity:0.737" fill="#81a296" d="M 93.5,94.5 C 94.1667,94.5 94.8333,94.5 95.5,94.5C 96.5,95.1667 97.5,95.8333 98.5,96.5C 96.1667,96.5 93.8333,96.5 91.5,96.5C 91.5,95.1667 92.1667,94.5 93.5,94.5 Z"/></g>
<g><path style="opacity:0.753" fill="#9baea8" d="M 95.5,94.5 C 98.0728,94.1485 100.406,94.6485 102.5,96C 101.207,96.49 99.8734,96.6567 98.5,96.5C 97.5,95.8333 96.5,95.1667 95.5,94.5 Z"/></g>
</svg>
