<?xml version="1.0" encoding="UTF-8"?>
<!DOCTYPE svg PUBLIC "-//W3C//DTD SVG 1.1//EN" "http://www.w3.org/Graphics/SVG/1.1/DTD/svg11.dtd">
<svg xmlns="http://www.w3.org/2000/svg" version="1.1" width="146px" height="118px" style="shape-rendering:geometricPrecision; text-rendering:geometricPrecision; image-rendering:optimizeQuality; fill-rule:evenodd; clip-rule:evenodd" xmlns:xlink="http://www.w3.org/1999/xlink">
<g><path style="opacity:1" fill="#deb778" d="M 80.5,19.5 C 78.8008,19.3398 77.1341,19.5065 75.5,20C 77.0581,20.21 78.3915,20.71 79.5,21.5C 76.5,21.5 73.5,21.5 70.5,21.5C 68.8212,21.7148 67.8212,21.0481 67.5,19.5C 71.9798,18.3376 76.3131,18.3376 80.5,19.5 Z"/></g>
<g><path style="opacity:1" fill="#d29f4f" d="M 80.5,19.5 C 81.5,19.5 82.5,19.5 83.5,19.5C 83.5,20.1667 83.5,20.8333 83.5,21.5C 82.8333,21.5 82.1667,21.5 81.5,21.5C 80.8333,21.5 80.1667,21.5 79.5,21.5C 78.3915,20.71 77.0581,20.21 75.5,20C 77.1341,19.5065 78.8008,19.3398 80.5,19.5 Z"/></g>
<g><path style="opacity:1" fill="#e8d4b3" d="M 67.5,19.5 C 67.8212,21.0481 68.8212,21.7148 70.5,21.5C 69.4324,22.4345 68.099,22.7678 66.5,22.5C 65.791,21.596 64.791,21.2627 63.5,21.5C 64.5137,20.3263 65.847,19.6596 67.5,19.5 Z"/></g>
<g><path style="opacity:1" fill="#ddc394" d="M 83.5,19.5 C 85.8984,19.2594 87.8984,19.9261 89.5,21.5C 88.0413,21.4326 86.7079,21.7659 85.5,22.5C 84.8333,22.1667 84.1667,21.8333 83.5,21.5C 83.5,20.8333 83.5,20.1667 83.5,19.5 Z"/></g>
<g><path style="opacity:0.024" fill="#fefadb" d="M 81.5,21.5 C 82.1667,21.5 82.8333,21.5 83.5,21.5C 84.1667,21.8333 84.8333,22.1667 85.5,22.5C 84.4324,23.4345 83.099,23.7678 81.5,23.5C 81.1667,23.5 80.8333,23.5 80.5,23.5C 80.8333,22.8333 81.1667,22.1667 81.5,21.5 Z"/></g>
<g><path style="opacity:1" fill="#e1c189" d="M 63.5,21.5 C 64.791,21.2627 65.791,21.596 66.5,22.5C 63.4483,23.9713 60.4483,25.638 57.5,27.5C 57.6309,26.6236 57.2975,25.9569 56.5,25.5C 55.1482,26.5244 53.8149,27.5244 52.5,28.5C 52.1667,28.5 51.8333,28.5 51.5,28.5C 54.5499,24.6383 58.5499,22.305 63.5,21.5 Z"/></g>
<g><path style="opacity:1" fill="#e0c998" d="M 80.5,23.5 C 80.8333,23.5 81.1667,23.5 81.5,23.5C 78.7417,24.9665 79.075,25.6332 82.5,25.5C 80.4006,26.6118 78.0673,27.2785 75.5,27.5C 78.2583,26.0335 77.925,25.3668 74.5,25.5C 76.2143,24.2616 78.2143,23.595 80.5,23.5 Z"/></g>
<g><path style="opacity:0.918" fill="#dab472" d="M 89.5,21.5 C 91.3797,21.2291 92.713,21.8958 93.5,23.5C 91.0122,25.3878 88.0122,26.0545 84.5,25.5C 83.8333,25.5 83.1667,25.5 82.5,25.5C 79.075,25.6332 78.7417,24.9665 81.5,23.5C 83.099,23.7678 84.4324,23.4345 85.5,22.5C 86.7079,21.7659 88.0413,21.4326 89.5,21.5 Z"/></g>
<g><path style="opacity:1" fill="#d89e40" d="M 87.5,23.5 C 88.8488,22.2035 90.1821,22.3702 91.5,24C 90.0715,24.5791 88.7382,24.4124 87.5,23.5 Z"/></g>
<g><path style="opacity:0.631" fill="#f2ead6" d="M 93.5,23.5 C 94.404,24.209 94.7373,25.209 94.5,26.5C 90.9581,26.8128 87.6248,26.4794 84.5,25.5C 88.0122,26.0545 91.0122,25.3878 93.5,23.5 Z"/></g>
<g><path style="opacity:1" fill="#deb775" d="M 57.5,27.5 C 57.0269,28.9063 56.0269,29.573 54.5,29.5C 53.5084,29.6716 52.8417,29.3382 52.5,28.5C 53.8149,27.5244 55.1482,26.5244 56.5,25.5C 57.2975,25.9569 57.6309,26.6236 57.5,27.5 Z"/></g>
<g><path style="opacity:1" fill="#dbb982" d="M 74.5,25.5 C 77.925,25.3668 78.2583,26.0335 75.5,27.5C 74.4863,28.6737 73.153,29.3404 71.5,29.5C 70.6618,29.1583 70.3284,28.4916 70.5,27.5C 71.5137,26.3263 72.847,25.6596 74.5,25.5 Z"/></g>
<g><path style="opacity:1" fill="#dac39b" d="M 51.5,28.5 C 51.8333,28.5 52.1667,28.5 52.5,28.5C 52.8417,29.3382 53.5084,29.6716 54.5,29.5C 52.1667,31.1667 50.1667,33.1667 48.5,35.5C 47.9569,35.44 47.6236,35.1067 47.5,34.5C 48.6302,33.3777 49.2969,32.0443 49.5,30.5C 49.8333,29.5 50.5,28.8333 51.5,28.5 Z"/></g>
<g><path style="opacity:0.702" fill="#e8d6ab" d="M 70.5,27.5 C 70.3284,28.4916 70.6618,29.1583 71.5,29.5C 70.8333,30.8333 69.8333,31.8333 68.5,32.5C 68.5,31.1667 67.8333,30.5 66.5,30.5C 67.795,29.5116 69.1283,28.5116 70.5,27.5 Z"/></g>
<g><path style="opacity:0.961" fill="#e0cea0" d="M 66.5,30.5 C 67.8333,30.5 68.5,31.1667 68.5,32.5C 66.8036,34.5248 65.137,36.5248 63.5,38.5C 62.5084,38.6716 61.8417,38.3382 61.5,37.5C 62.4432,34.5999 64.1099,32.2666 66.5,30.5 Z"/></g>
<g><path style="opacity:1" fill="#e8d5b1" d="M 49.5,30.5 C 49.2969,32.0443 48.6302,33.3777 47.5,34.5C 47.6236,35.1067 47.9569,35.44 48.5,35.5C 47.7368,37.3684 46.7368,39.0351 45.5,40.5C 45.5912,38.3023 44.9245,37.9689 43.5,39.5C 44.7589,35.9754 46.7589,32.9754 49.5,30.5 Z"/></g>
<g><path style="opacity:1" fill="#e1cca0" d="M 61.5,37.5 C 61.8417,38.3382 62.5084,38.6716 63.5,38.5C 62.8333,40.5 62.1667,42.5 61.5,44.5C 60.7784,44.9175 60.2784,45.5842 60,46.5C 59.51,45.2068 59.3433,43.8734 59.5,42.5C 59.4021,40.4471 60.0687,38.7804 61.5,37.5 Z"/></g>
<g><path style="opacity:0.741" fill="#e9d8b9" d="M 91.5,40.5 C 90.391,40.5569 89.391,40.8902 88.5,41.5C 89.1403,38.3178 90.1403,37.9845 91.5,40.5 Z"/></g>
<g><path style="opacity:0.957" fill="#e1cba0" d="M 45.5,40.5 C 45.5979,42.5529 44.9313,44.2196 43.5,45.5C 42.596,44.791 42.2627,43.791 42.5,42.5C 42.2627,41.209 42.596,40.209 43.5,39.5C 44.9245,37.9689 45.5912,38.3023 45.5,40.5 Z"/></g>
<g><path style="opacity:0.953" fill="#e5dac1" d="M 81.5,43.5 C 81.5,44.5 81.5,45.5 81.5,46.5C 79.6325,45.2139 79.4658,43.8805 81,42.5C 81.3988,42.7284 81.5654,43.0618 81.5,43.5 Z"/></g>
<g><path style="opacity:0.89" fill="#e5c78d" d="M 91.5,40.5 C 90.8333,42.5 90.1667,44.5 89.5,46.5C 89.5,47.1667 89.1667,47.5 88.5,47.5C 87.1591,45.88 85.3258,44.88 83,44.5C 82.5172,45.448 82.3505,46.448 82.5,47.5C 81.8333,47.5 81.5,47.1667 81.5,46.5C 81.5,45.5 81.5,44.5 81.5,43.5C 83.5,43.8333 85.5,44.1667 87.5,44.5C 87.2627,43.209 87.596,42.209 88.5,41.5C 89.391,40.8902 90.391,40.5569 91.5,40.5 Z"/></g>
<g><path style="opacity:1" fill="#d0b47a" d="M 95.5,44.5 C 97.4832,44.1568 98.8166,44.8235 99.5,46.5C 98.0937,46.9731 97.427,47.9731 97.5,49.5C 96.7611,49.631 96.0944,49.4643 95.5,49C 96.2524,48.3292 96.5858,47.4959 96.5,46.5C 96.1667,45.8333 95.8333,45.1667 95.5,44.5 Z"/></g>
<g><path style="opacity:0.867" fill="#e6dab7" d="M 99.5,46.5 C 98.8166,44.8235 97.4832,44.1568 95.5,44.5C 96.9972,43.6942 98.6639,43.0276 100.5,42.5C 101.421,44.0314 101.088,45.3647 99.5,46.5 Z"/></g>
<g><path style="opacity:0.765" fill="#efdcc2" d="M 59.5,42.5 C 59.3433,43.8734 59.51,45.2068 60,46.5C 60.2784,45.5842 60.7784,44.9175 61.5,44.5C 60.8413,47.4552 60.5079,50.4552 60.5,53.5C 59.8333,51.5 59.1667,49.5 58.5,47.5C 58.2155,45.5853 58.5489,43.9187 59.5,42.5 Z"/></g>
<g><path style="opacity:0.4" fill="#f6e8c7" d="M 91.5,40.5 C 92.3446,41.6715 93.0113,43.0048 93.5,44.5C 92.4489,45.2223 91.7822,46.2223 91.5,47.5C 90.8333,47.1667 90.1667,46.8333 89.5,46.5C 90.1667,44.5 90.8333,42.5 91.5,40.5 Z"/></g>
<g><path style="opacity:0.937" fill="#d6bc87" d="M 93.5,44.5 C 94.1667,44.5 94.8333,44.5 95.5,44.5C 95.8333,45.1667 96.1667,45.8333 96.5,46.5C 95.209,46.2627 94.209,46.596 93.5,47.5C 93.0623,48.5063 92.3957,48.5063 91.5,47.5C 91.7822,46.2223 92.4489,45.2223 93.5,44.5 Z"/></g>
<g><path style="opacity:1" fill="#d2a961" d="M 88.5,47.5 C 88.1667,47.5 87.8333,47.5 87.5,47.5C 85.8235,48.1834 85.1568,49.5168 85.5,51.5C 84.0221,50.5525 83.0221,49.2191 82.5,47.5C 82.3505,46.448 82.5172,45.448 83,44.5C 85.3258,44.88 87.1591,45.88 88.5,47.5 Z"/></g>
<g><path style="opacity:0.902" fill="#f6e3c0" d="M 93.5,47.5 C 94.209,46.596 95.209,46.2627 96.5,46.5C 96.5858,47.4959 96.2524,48.3292 95.5,49C 96.0944,49.4643 96.7611,49.631 97.5,49.5C 97.1667,50.1667 96.8333,50.8333 96.5,51.5C 95.1429,50.4097 94.1429,49.0764 93.5,47.5 Z"/></g>
<g><path style="opacity:0.825" fill="#d4b986" d="M 42.5,53.5 C 40.7973,54.6602 40.1307,53.9935 40.5,51.5C 40.5,50.1667 40.5,48.8333 40.5,47.5C 41.1174,47.3893 41.6174,47.056 42,46.5C 42.4966,48.8098 42.6633,51.1432 42.5,53.5 Z"/></g>
<g><path style="opacity:0.173" fill="#f9eac4" d="M 42.5,42.5 C 42.2627,43.791 42.596,44.791 43.5,45.5C 43.5,51.5 43.5,57.5 43.5,63.5C 42.5206,60.3752 42.1872,57.0419 42.5,53.5C 42.6633,51.1432 42.4966,48.8098 42,46.5C 41.6174,47.056 41.1174,47.3893 40.5,47.5C 40.7959,45.597 41.4625,43.9303 42.5,42.5 Z"/></g>
<g><path style="opacity:0.439" fill="#f5e7c8" d="M 87.5,47.5 C 86.4019,48.397 86.4019,49.2303 87.5,50C 86.9558,50.7172 86.2891,51.2172 85.5,51.5C 85.1568,49.5168 85.8235,48.1834 87.5,47.5 Z"/></g>
<g><path style="opacity:1" fill="#e9c797" d="M 82.5,47.5 C 83.0221,49.2191 84.0221,50.5525 85.5,51.5C 85.5,52.1667 85.5,52.8333 85.5,53.5C 84.0695,53.5792 82.7362,53.2458 81.5,52.5C 80.4777,52.8555 79.811,53.5222 79.5,54.5C 78.7611,54.631 78.0944,54.4643 77.5,54C 79.8655,52.2105 81.5321,50.0439 82.5,47.5 Z"/></g>
<g><path style="opacity:0.914" fill="#f0e6ce" d="M 99.5,46.5 C 98.298,49.1226 99.1313,51.1226 102,52.5C 102.483,53.448 102.649,54.448 102.5,55.5C 100.801,55.6602 99.1341,55.4935 97.5,55C 97.8333,54.6667 98.1667,54.3333 98.5,54C 97.6195,53.2917 96.9528,52.4584 96.5,51.5C 96.8333,50.8333 97.1667,50.1667 97.5,49.5C 97.427,47.9731 98.0937,46.9731 99.5,46.5 Z"/></g>
<g><path style="opacity:0.973" fill="#dab46b" d="M 85.5,53.5 C 85.8333,53.5 86.1667,53.5 86.5,53.5C 86.1788,55.0481 85.1788,55.7148 83.5,55.5C 82.0413,55.5674 80.7079,55.2341 79.5,54.5C 79.811,53.5222 80.4777,52.8555 81.5,52.5C 82.7362,53.2458 84.0695,53.5792 85.5,53.5 Z"/></g>
<g><path style="opacity:0.2" fill="#f4f1f4" d="M 94.5,55.5 C 94.8966,54.475 95.5632,54.3083 96.5,55C 95.9056,55.4643 95.2389,55.631 94.5,55.5 Z"/></g>
<g><path style="opacity:0.961" fill="#dcc897" d="M 58.5,47.5 C 59.1667,49.5 59.8333,51.5 60.5,53.5C 60.5,54.1667 60.5,54.8333 60.5,55.5C 59.6993,57.0418 59.366,58.7085 59.5,60.5C 57.4726,56.2632 57.1393,51.9298 58.5,47.5 Z"/></g>
<g><path style="opacity:0.012" fill="#f7f4e0" d="M 91.5,56.5 C 95.788,56.0878 96.4547,57.7545 93.5,61.5C 92.8933,61.3764 92.56,61.0431 92.5,60.5C 93.0431,60.44 93.3764,60.1067 93.5,59.5C 92.8075,58.4822 92.1408,57.4822 91.5,56.5 Z"/></g>
<g><path style="opacity:1" fill="#ddb981" d="M 91.5,56.5 C 92.1408,57.4822 92.8075,58.4822 93.5,59.5C 93.3764,60.1067 93.0431,60.44 92.5,60.5C 91.5416,60.0472 90.7083,59.3805 90,58.5C 89.2917,59.3805 88.4584,60.0472 87.5,60.5C 85.9519,60.1788 85.2852,59.1788 85.5,57.5C 86.791,57.7373 87.791,57.404 88.5,56.5C 89.5,55.1667 90.5,55.1667 91.5,56.5 Z"/></g>
<g><path style="opacity:0.976" fill="#e0cba1" d="M 40.5,51.5 C 40.1307,53.9935 40.7973,54.6602 42.5,53.5C 42.1872,57.0419 42.5206,60.3752 43.5,63.5C 43.5,63.8333 43.5,64.1667 43.5,64.5C 43.7373,65.791 43.404,66.791 42.5,67.5C 40.9891,65.5242 40.1558,63.1909 40,60.5C 39.1955,57.3035 39.3622,54.3035 40.5,51.5 Z"/></g>
<g><path style="opacity:0.902" fill="#e6d2a7" d="M 86.5,53.5 C 87.1667,54.5 87.8333,55.5 88.5,56.5C 87.791,57.404 86.791,57.7373 85.5,57.5C 85.2852,59.1788 85.9519,60.1788 87.5,60.5C 86.5729,62.4759 85.2395,62.8092 83.5,61.5C 84.819,59.4684 84.819,57.4684 83.5,55.5C 85.1788,55.7148 86.1788,55.0481 86.5,53.5 Z"/></g>
<g><path style="opacity:0.976" fill="#e2c48d" d="M 60.5,55.5 C 61.4582,57.3024 62.1249,59.3024 62.5,61.5C 61.5655,62.5676 61.2322,63.901 61.5,65.5C 60.0687,64.2196 59.4021,62.5529 59.5,60.5C 59.366,58.7085 59.6993,57.0418 60.5,55.5 Z"/></g>
<g><path style="opacity:0.961" fill="#d4c086" d="M 62.5,61.5 C 64.0075,63.1815 65.0075,65.1815 65.5,67.5C 65.1583,68.3382 64.4916,68.6716 63.5,68.5C 62.8333,67.5 62.1667,66.5 61.5,65.5C 61.2322,63.901 61.5655,62.5676 62.5,61.5 Z"/></g>
<g><path style="opacity:0.498" fill="#f4f2ee" d="M 110.5,67.5 C 109.518,68.1408 108.518,68.8075 107.5,69.5C 106.893,69.3764 106.56,69.0431 106.5,68.5C 106.418,66.7483 107.251,65.7483 109,65.5C 110.03,65.8361 110.53,66.5028 110.5,67.5 Z"/></g>
<g><path style="opacity:0.965" fill="#e6d4ae" d="M 43.5,64.5 C 45.5607,68.9532 47.8941,73.2866 50.5,77.5C 49.0755,75.9689 48.4088,76.3023 48.5,78.5C 45.2145,75.6 43.2145,71.9334 42.5,67.5C 43.404,66.791 43.7373,65.791 43.5,64.5 Z"/></g>
<g><path style="opacity:0.247" fill="#fcf9f6" d="M 110.5,67.5 C 109.92,69.7488 108.587,71.4154 106.5,72.5C 106.158,71.6618 105.492,71.3284 104.5,71.5C 104.932,70.2905 105.599,69.2905 106.5,68.5C 106.56,69.0431 106.893,69.3764 107.5,69.5C 108.518,68.8075 109.518,68.1408 110.5,67.5 Z"/></g>
<g><path style="opacity:1" fill="#dbc490" d="M 65.5,67.5 C 67.1667,68.8333 68.8333,70.1667 70.5,71.5C 70.5,72.8333 69.8333,73.5 68.5,73.5C 66.5,72.1667 64.8333,70.5 63.5,68.5C 64.4916,68.6716 65.1583,68.3382 65.5,67.5 Z"/></g>
<g><path style="opacity:0.478" fill="#f3efe6" d="M 104.5,71.5 C 105.492,71.3284 106.158,71.6618 106.5,72.5C 105.647,76.0204 103.647,78.6871 100.5,80.5C 100.5,79.8333 100.167,79.5 99.5,79.5C 101.203,77.4075 102.536,75.0741 103.5,72.5C 104.167,72.5 104.5,72.1667 104.5,71.5 Z"/></g>
<g><path style="opacity:1" fill="#dbc898" d="M 70.5,71.5 C 74.0732,73.7845 77.7399,75.7845 81.5,77.5C 79.5,77.5 77.5,77.5 75.5,77.5C 72.6689,76.9213 70.3356,75.588 68.5,73.5C 69.8333,73.5 70.5,72.8333 70.5,71.5 Z"/></g>
<g><path style="opacity:0.106" fill="#fdfcf5" d="M 103.5,72.5 C 102.536,75.0741 101.203,77.4075 99.5,79.5C 98.8333,79.8333 98.1667,80.1667 97.5,80.5C 97.6195,76.3853 99.6195,73.7186 103.5,72.5 Z"/></g>
<g><path style="opacity:1" fill="#d5bd87" d="M 50.5,77.5 C 51.1667,77.8333 51.8333,78.1667 52.5,78.5C 52.5106,80.0174 53.1772,81.1841 54.5,82C 53.9056,82.4643 53.2389,82.631 52.5,82.5C 50.8333,81.5 49.5,80.1667 48.5,78.5C 48.4088,76.3023 49.0755,75.9689 50.5,77.5 Z"/></g>
<g><path style="opacity:0.957" fill="#e3d4b5" d="M 75.5,77.5 C 77.5,77.5 79.5,77.5 81.5,77.5C 85.5789,77.6691 86.0789,78.6691 83,80.5C 80.1807,80.0179 77.6807,79.0179 75.5,77.5 Z"/></g>
<g><path style="opacity:0.969" fill="#efe9df" d="M 99.5,79.5 C 100.167,79.5 100.5,79.8333 100.5,80.5C 99.1667,82.5 97.5,84.1667 95.5,85.5C 95.6716,84.5084 95.3382,83.8417 94.5,83.5C 95.1667,82.1667 96.1667,81.1667 97.5,80.5C 98.1667,80.1667 98.8333,79.8333 99.5,79.5 Z"/></g>
<g><path style="opacity:0.898" fill="#efe0b5" d="M 52.5,78.5 C 54.5,79.8333 56.1667,81.5 57.5,83.5C 56.375,84.3478 56.375,85.3478 57.5,86.5C 55.2512,85.9202 53.5846,84.5869 52.5,82.5C 53.2389,82.631 53.9056,82.4643 54.5,82C 53.1772,81.1841 52.5106,80.0174 52.5,78.5 Z"/></g>
<g><path style="opacity:1" fill="#ddc695" d="M 57.5,83.5 C 59.674,83.7497 61.3406,84.7497 62.5,86.5C 61.791,87.404 60.791,87.7373 59.5,87.5C 58.8333,87.1667 58.1667,86.8333 57.5,86.5C 56.375,85.3478 56.375,84.3478 57.5,83.5 Z"/></g>
<g><path style="opacity:0.843" fill="#e1cfb1" d="M 94.5,83.5 C 95.3382,83.8417 95.6716,84.5084 95.5,85.5C 94.8333,85.8333 94.1667,86.1667 93.5,86.5C 92.1667,86.5 90.8333,86.5 89.5,86.5C 89.5,86.1667 89.5,85.8333 89.5,85.5C 91.0495,84.5592 92.7162,83.8925 94.5,83.5 Z"/></g>
<g><path style="opacity:0.929" fill="#e7dcbc" d="M 89.5,85.5 C 89.5,85.8333 89.5,86.1667 89.5,86.5C 88.1667,87.5 86.8333,88.5 85.5,89.5C 84.4324,90.4345 83.099,90.7678 81.5,90.5C 82.1667,89.8333 82.8333,89.1667 83.5,88.5C 85.4261,87.5139 87.4261,86.5139 89.5,85.5 Z"/></g>
<g><path style="opacity:0.533" fill="#faf4e2" d="M 89.5,86.5 C 90.8333,86.5 92.1667,86.5 93.5,86.5C 91.1098,88.0198 88.4432,89.0198 85.5,89.5C 86.8333,88.5 88.1667,87.5 89.5,86.5 Z"/></g>
<g><path style="opacity:1" fill="#ecd5af" d="M 62.5,86.5 C 64.099,86.2322 65.4324,86.5655 66.5,87.5C 66.0618,87.4346 65.7284,87.6012 65.5,88C 66.756,88.4169 67.4226,89.2502 67.5,90.5C 64.5145,90.0972 61.8478,89.0972 59.5,87.5C 60.791,87.7373 61.791,87.404 62.5,86.5 Z"/></g>
<g><path style="opacity:0.976" fill="#d1c09d" d="M 74.5,88.5 C 77.5,88.5 80.5,88.5 83.5,88.5C 82.8333,89.1667 82.1667,89.8333 81.5,90.5C 81.1667,90.5 80.8333,90.5 80.5,90.5C 78.5,89.8333 76.5,89.1667 74.5,88.5 Z"/></g>
<g><path style="opacity:0.886" fill="#d6c39b" d="M 66.5,87.5 C 69.2062,87.5751 71.8728,87.9084 74.5,88.5C 76.5,89.1667 78.5,89.8333 80.5,90.5C 76.3131,91.6624 71.9798,91.6624 67.5,90.5C 67.4226,89.2502 66.756,88.4169 65.5,88C 65.7284,87.6012 66.0618,87.4346 66.5,87.5 Z"/></g>
</svg>
