<?xml version="1.0" encoding="UTF-8"?>
<!DOCTYPE svg PUBLIC "-//W3C//DTD SVG 1.1//EN" "http://www.w3.org/Graphics/SVG/1.1/DTD/svg11.dtd">
<svg xmlns="http://www.w3.org/2000/svg" version="1.1" width="119px" height="121px" style="shape-rendering:geometricPrecision; text-rendering:geometricPrecision; image-rendering:optimizeQuality; fill-rule:evenodd; clip-rule:evenodd" xmlns:xlink="http://www.w3.org/1999/xlink">
<g><path style="opacity:1" fill="#c7ab6a" d="M 43.5,23.5 C 43.1583,24.3382 42.4916,24.6716 41.5,24.5C 41.5,24.1667 41.5,23.8333 41.5,23.5C 42.1667,22.1667 42.8333,22.1667 43.5,23.5 Z"/></g>
<g><path style="opacity:1" fill="#e1a766" d="M 39.5,23.5 C 40.1667,23.5 40.8333,23.5 41.5,23.5C 41.5,23.8333 41.5,24.1667 41.5,24.5C 41.1583,25.3382 40.4916,25.6716 39.5,25.5C 39.5,24.8333 39.5,24.1667 39.5,23.5 Z"/></g>
<g><path style="opacity:0.09" fill="#dab172" d="M 43.5,23.5 C 43.8333,23.5 44.1667,23.5 44.5,23.5C 44.5,24.1667 44.5,24.8333 44.5,25.5C 42.8828,26.038 41.2161,26.3713 39.5,26.5C 39.5,26.1667 39.5,25.8333 39.5,25.5C 40.4916,25.6716 41.1583,25.3382 41.5,24.5C 42.4916,24.6716 43.1583,24.3382 43.5,23.5 Z"/></g>
<g><path style="opacity:0.059" fill="#cfae7e" d="M 44.5,23.5 C 45.8333,23.5 46.5,24.1667 46.5,25.5C 45.8333,25.5 45.1667,25.5 44.5,25.5C 44.5,24.8333 44.5,24.1667 44.5,23.5 Z"/></g>
<g><path style="opacity:0.792" fill="#e5b965" d="M 39.5,23.5 C 39.5,24.1667 39.5,24.8333 39.5,25.5C 39.5,25.8333 39.5,26.1667 39.5,26.5C 39.6716,27.4916 39.3382,28.1583 38.5,28.5C 38.5,27.1667 37.8333,26.5 36.5,26.5C 37.1667,25.1667 38.1667,24.1667 39.5,23.5 Z"/></g>
<g><path style="opacity:1" fill="#c2ac77" d="M 49.5,26.5 C 48.5084,26.6716 47.8417,26.3382 47.5,25.5C 48.3274,24.5613 48.9941,24.8946 49.5,26.5 Z"/></g>
<g><path style="opacity:0.996" fill="#e2c592" d="M 79.5,25.5 C 78.596,26.209 78.2627,27.209 78.5,28.5C 76.2612,26.9988 76.2612,25.6655 78.5,24.5C 79.1067,24.6236 79.44,24.9569 79.5,25.5 Z"/></g>
<g><path style="opacity:1" fill="#dcaa5b" d="M 36.5,26.5 C 37.8333,26.5 38.5,27.1667 38.5,28.5C 38.5,29.1667 38.1667,29.5 37.5,29.5C 36.8333,30.1667 36.1667,30.8333 35.5,31.5C 35.5,30.5 35.5,29.5 35.5,28.5C 35.3284,27.5084 35.6618,26.8417 36.5,26.5 Z"/></g>
<g><path style="opacity:0.988" fill="#d4b05c" d="M 46.5,25.5 C 46.8333,25.5 47.1667,25.5 47.5,25.5C 47.8417,26.3382 48.5084,26.6716 49.5,26.5C 49.5,26.8333 49.5,27.1667 49.5,27.5C 48.5,27.5 47.5,27.5 46.5,27.5C 46.1667,27.5 45.8333,27.5 45.5,27.5C 45.5,27.1667 45.5,26.8333 45.5,26.5C 46.1667,26.5 46.5,26.1667 46.5,25.5 Z"/></g>
<g><path style="opacity:1" fill="#ccb160" d="M 79.5,25.5 C 79.5569,26.609 79.8902,27.609 80.5,28.5C 79.8333,28.5 79.5,28.8333 79.5,29.5C 79.1667,29.5 78.8333,29.5 78.5,29.5C 78.5,29.1667 78.5,28.8333 78.5,28.5C 78.2627,27.209 78.596,26.209 79.5,25.5 Z"/></g>
<g><path style="opacity:0.569" fill="#f2e08b" d="M 79.5,25.5 C 80.9063,25.9731 81.573,26.9731 81.5,28.5C 81.1667,28.5 80.8333,28.5 80.5,28.5C 79.8902,27.609 79.5569,26.609 79.5,25.5 Z"/></g>
<g><path style="opacity:0.961" fill="#d2b279" d="M 49.5,26.5 C 50.9063,26.9731 51.573,27.9731 51.5,29.5C 50.5,29.1667 49.8333,28.5 49.5,27.5C 49.5,27.1667 49.5,26.8333 49.5,26.5 Z"/></g>
<g><path style="opacity:0.941" fill="#dfc08a" d="M 45.5,26.5 C 45.5,26.8333 45.5,27.1667 45.5,27.5C 45.1667,28.1667 44.8333,28.8333 44.5,29.5C 44.1667,29.5 43.8333,29.5 43.5,29.5C 43.1667,29.5 42.8333,29.5 42.5,29.5C 43.1667,28.1667 44.1667,27.1667 45.5,26.5 Z"/></g>
<g><path style="opacity:1" fill="#d8a756" d="M 45.5,27.5 C 45.8333,27.5 46.1667,27.5 46.5,27.5C 46.5,27.8333 46.5,28.1667 46.5,28.5C 46.1583,29.3382 45.4916,29.6716 44.5,29.5C 44.8333,28.8333 45.1667,28.1667 45.5,27.5 Z"/></g>
<g><path style="opacity:0.965" fill="#d5a751" d="M 46.5,28.5 C 46.5,28.1667 46.5,27.8333 46.5,27.5C 47.5,27.5 48.5,27.5 49.5,27.5C 49.8333,28.5 50.5,29.1667 51.5,29.5C 50.8166,31.1765 49.4832,31.8432 47.5,31.5C 47.5,31.1667 47.5,30.8333 47.5,30.5C 49.9327,30.2144 49.9327,29.5477 47.5,28.5C 47.1667,28.5 46.8333,28.5 46.5,28.5 Z"/></g>
<g><path style="opacity:0.737" fill="#ecd5a9" d="M 75.5,30.5 C 74.8333,30.1667 74.1667,29.8333 73.5,29.5C 72.8333,29.5 72.1667,29.5 71.5,29.5C 72.7985,27.9014 74.4652,27.4014 76.5,28C 75.7476,28.6708 75.4142,29.5041 75.5,30.5 Z"/></g>
<g><path style="opacity:1" fill="#e4b266" d="M 79.5,29.5 C 79.5,28.8333 79.8333,28.5 80.5,28.5C 80.8333,28.5 81.1667,28.5 81.5,28.5C 81.8333,28.5 82.1667,28.5 82.5,28.5C 82.5,29.1667 82.5,29.8333 82.5,30.5C 81.8333,30.8333 81.1667,31.1667 80.5,31.5C 80.6716,30.5084 80.3382,29.8417 79.5,29.5 Z"/></g>
<g><path style="opacity:0.537" fill="#e2b47b" d="M 35.5,28.5 C 35.5,29.5 35.5,30.5 35.5,31.5C 35.5,32.1667 35.5,32.8333 35.5,33.5C 35.5,34.1667 35.5,34.8333 35.5,35.5C 35.5,35.8333 35.5,36.1667 35.5,36.5C 33.2856,33.7107 33.2856,31.0441 35.5,28.5 Z"/></g>
<g><path style="opacity:0.071" fill="#fcd07b" d="M 46.5,28.5 C 46.8333,28.5 47.1667,28.5 47.5,28.5C 47.5,29.1667 47.5,29.8333 47.5,30.5C 46.391,30.5569 45.391,30.8902 44.5,31.5C 44.5,30.8333 44.5,30.1667 44.5,29.5C 45.4916,29.6716 46.1583,29.3382 46.5,28.5 Z"/></g>
<g><path style="opacity:0.278" fill="#ffd378" d="M 47.5,28.5 C 49.9327,29.5477 49.9327,30.2144 47.5,30.5C 47.5,29.8333 47.5,29.1667 47.5,28.5 Z"/></g>
<g><path style="opacity:1" fill="#e3c177" d="M 71.5,29.5 C 72.1667,29.5 72.8333,29.5 73.5,29.5C 73.1667,30.1667 72.8333,30.8333 72.5,31.5C 71.8333,31.5 71.5,31.1667 71.5,30.5C 71.5,30.1667 71.5,29.8333 71.5,29.5 Z"/></g>
<g><path style="opacity:0.588" fill="#f2cfa9" d="M 78.5,29.5 C 78.8333,29.5 79.1667,29.5 79.5,29.5C 80.3382,29.8417 80.6716,30.5084 80.5,31.5C 80.1667,31.5 79.8333,31.5 79.5,31.5C 79.1667,30.8333 78.8333,30.1667 78.5,29.5 Z"/></g>
<g><path style="opacity:0.953" fill="#e9ce71" d="M 82.5,28.5 C 83.1667,28.8333 83.8333,29.1667 84.5,29.5C 84.5,29.8333 84.5,30.1667 84.5,30.5C 83.8333,30.5 83.1667,30.5 82.5,30.5C 82.5,29.8333 82.5,29.1667 82.5,28.5 Z"/></g>
<g><path style="opacity:0.929" fill="#e9bd78" d="M 42.5,29.5 C 42.8333,29.5 43.1667,29.5 43.5,29.5C 43.1667,30.1667 42.8333,30.8333 42.5,31.5C 41.8333,31.5 41.1667,31.5 40.5,31.5C 40.8333,30.5 41.5,29.8333 42.5,29.5 Z"/></g>
<g><path style="opacity:0.078" fill="#f9e285" d="M 73.5,29.5 C 74.1667,29.8333 74.8333,30.1667 75.5,30.5C 75.5,30.8333 75.5,31.1667 75.5,31.5C 74.5,31.5 73.5,31.5 72.5,31.5C 72.8333,30.8333 73.1667,30.1667 73.5,29.5 Z"/></g>
<g><path style="opacity:0.918" fill="#e9d99f" d="M 84.5,29.5 C 86.9845,30.7399 86.9845,31.7399 84.5,32.5C 84.5,31.8333 84.5,31.1667 84.5,30.5C 84.5,30.1667 84.5,29.8333 84.5,29.5 Z"/></g>
<g><path style="opacity:1" fill="#e0aa59" d="M 40.5,32.5 C 40.5,32.1667 40.5,31.8333 40.5,31.5C 41.1667,31.5 41.8333,31.5 42.5,31.5C 42.5,31.8333 42.5,32.1667 42.5,32.5C 42.5,32.8333 42.5,33.1667 42.5,33.5C 42.1667,33.5 41.8333,33.5 41.5,33.5C 41.5,32.8333 41.1667,32.5 40.5,32.5 Z"/></g>
<g><path style="opacity:0.243" fill="#e4ab5f" d="M 43.5,29.5 C 43.8333,29.5 44.1667,29.5 44.5,29.5C 44.5,30.1667 44.5,30.8333 44.5,31.5C 43.8333,31.8333 43.1667,32.1667 42.5,32.5C 42.5,32.1667 42.5,31.8333 42.5,31.5C 42.8333,30.8333 43.1667,30.1667 43.5,29.5 Z"/></g>
<g><path style="opacity:0.89" fill="#e7b36b" d="M 47.5,30.5 C 47.5,30.8333 47.5,31.1667 47.5,31.5C 47.5,31.8333 47.5,32.1667 47.5,32.5C 47.5,33.1667 47.1667,33.5 46.5,33.5C 45.8333,33.5 45.1667,33.5 44.5,33.5C 44.5,32.8333 44.5,32.1667 44.5,31.5C 45.391,30.8902 46.391,30.5569 47.5,30.5 Z"/></g>
<g><path style="opacity:0.345" fill="#e0c28d" d="M 51.5,29.5 C 52.404,30.209 52.7373,31.209 52.5,32.5C 50.8333,32.5 49.1667,32.5 47.5,32.5C 47.5,32.1667 47.5,31.8333 47.5,31.5C 49.4832,31.8432 50.8166,31.1765 51.5,29.5 Z"/></g>
<g><path style="opacity:0.839" fill="#dcbe91" d="M 71.5,29.5 C 71.5,29.8333 71.5,30.1667 71.5,30.5C 70.6618,30.8417 70.3284,31.5084 70.5,32.5C 67.9845,31.1403 68.3178,30.1403 71.5,29.5 Z"/></g>
<g><path style="opacity:0.904" fill="#ecb55a" d="M 82.5,30.5 C 82.5,31.1667 82.5,31.8333 82.5,32.5C 81.5,32.5 80.5,32.5 79.5,32.5C 79.5,32.1667 79.5,31.8333 79.5,31.5C 79.8333,31.5 80.1667,31.5 80.5,31.5C 81.1667,31.1667 81.8333,30.8333 82.5,30.5 Z"/></g>
<g><path style="opacity:1" fill="#d7b05d" d="M 82.5,30.5 C 83.1667,30.5 83.8333,30.5 84.5,30.5C 84.5,31.1667 84.5,31.8333 84.5,32.5C 84.1583,33.3382 83.4916,33.6716 82.5,33.5C 82.5,33.1667 82.5,32.8333 82.5,32.5C 82.5,31.8333 82.5,31.1667 82.5,30.5 Z"/></g>
<g><path style="opacity:0.937" fill="#ebb76e" d="M 37.5,29.5 C 37.5,30.5 37.5,31.5 37.5,32.5C 37.5,33.1667 37.8333,33.5 38.5,33.5C 38.5,33.8333 38.5,34.1667 38.5,34.5C 37.391,34.4431 36.391,34.1098 35.5,33.5C 35.5,32.8333 35.5,32.1667 35.5,31.5C 36.1667,30.8333 36.8333,30.1667 37.5,29.5 Z"/></g>
<g><path style="opacity:0.525" fill="#f9c784" d="M 40.5,31.5 C 40.5,31.8333 40.5,32.1667 40.5,32.5C 39.8333,32.8333 39.1667,33.1667 38.5,33.5C 37.8333,33.5 37.5,33.1667 37.5,32.5C 38.391,31.8902 39.391,31.5569 40.5,31.5 Z"/></g>
<g><path style="opacity:0.145" fill="#ffe052" d="M 44.5,31.5 C 44.5,32.1667 44.5,32.8333 44.5,33.5C 43.8333,33.5 43.1667,33.5 42.5,33.5C 42.5,33.1667 42.5,32.8333 42.5,32.5C 43.1667,32.1667 43.8333,31.8333 44.5,31.5 Z"/></g>
<g><path style="opacity:0.922" fill="#e4b387" d="M 71.5,33.5 C 72.1667,32.1667 72.8333,32.1667 73.5,33.5C 73.5,33.8333 73.5,34.1667 73.5,34.5C 72.8333,34.1667 72.1667,33.8333 71.5,33.5 Z"/></g>
<g><path style="opacity:1" fill="#dfbc68" d="M 71.5,30.5 C 71.5,31.1667 71.8333,31.5 72.5,31.5C 73.5,31.5 74.5,31.5 75.5,31.5C 75.5,32.1667 75.5,32.8333 75.5,33.5C 74.8333,33.5 74.1667,33.5 73.5,33.5C 72.8333,32.1667 72.1667,32.1667 71.5,33.5C 70.8333,33.5 70.5,33.1667 70.5,32.5C 70.3284,31.5084 70.6618,30.8417 71.5,30.5 Z"/></g>
<g><path style="opacity:0.647" fill="#fdd4b0" d="M 75.5,31.5 C 76.391,32.1098 77.391,32.4431 78.5,32.5C 78.5,32.8333 78.5,33.1667 78.5,33.5C 77.5,33.5 76.5,33.5 75.5,33.5C 75.5,32.8333 75.5,32.1667 75.5,31.5 Z"/></g>
<g><path style="opacity:1" fill="#dda951" d="M 79.5,32.5 C 80.5,32.5 81.5,32.5 82.5,32.5C 82.5,32.8333 82.5,33.1667 82.5,33.5C 82.5,34.1667 82.1667,34.5 81.5,34.5C 80.1667,34.5 79.5,33.8333 79.5,32.5 Z"/></g>
<g><path style="opacity:1" fill="#d8a84e" d="M 40.5,32.5 C 41.1667,32.5 41.5,32.8333 41.5,33.5C 40.609,34.1098 39.609,34.4431 38.5,34.5C 38.5,34.1667 38.5,33.8333 38.5,33.5C 39.1667,33.1667 39.8333,32.8333 40.5,32.5 Z"/></g>
<g><path style="opacity:0.914" fill="#e6c581" d="M 73.5,34.5 C 73.5,34.1667 73.5,33.8333 73.5,33.5C 74.1667,33.5 74.8333,33.5 75.5,33.5C 75.5,34.1667 75.5,34.8333 75.5,35.5C 74.8333,35.1667 74.1667,34.8333 73.5,34.5 Z"/></g>
<g><path style="opacity:1" fill="#d7a24e" d="M 35.5,33.5 C 36.391,34.1098 37.391,34.4431 38.5,34.5C 38.5,34.8333 38.5,35.1667 38.5,35.5C 38.1667,35.5 37.8333,35.5 37.5,35.5C 36.8333,35.5 36.1667,35.5 35.5,35.5C 35.5,34.8333 35.5,34.1667 35.5,33.5 Z"/></g>
<g><path style="opacity:0.502" fill="#f1c370" d="M 41.5,33.5 C 41.8333,33.5 42.1667,33.5 42.5,33.5C 42.1667,34.1667 41.8333,34.8333 41.5,35.5C 41.1667,35.5 40.8333,35.5 40.5,35.5C 39.8333,35.5 39.1667,35.5 38.5,35.5C 38.5,35.1667 38.5,34.8333 38.5,34.5C 39.609,34.4431 40.609,34.1098 41.5,33.5 Z"/></g>
<g><path style="opacity:0.814" fill="#f8c274" d="M 42.5,33.5 C 43.1667,33.5 43.8333,33.5 44.5,33.5C 44.5,33.8333 44.5,34.1667 44.5,34.5C 43.609,35.1098 42.609,35.4431 41.5,35.5C 41.8333,34.8333 42.1667,34.1667 42.5,33.5 Z"/></g>
<g><path style="opacity:0.776" fill="#ddbd7a" d="M 44.5,33.5 C 45.1667,33.5 45.8333,33.5 46.5,33.5C 46.0679,34.7095 45.4013,35.7095 44.5,36.5C 44.5,35.8333 44.5,35.1667 44.5,34.5C 44.5,34.1667 44.5,33.8333 44.5,33.5 Z"/></g>
<g><path style="opacity:0.357" fill="#e8d093" d="M 52.5,36.5 C 52.1667,36.5 51.8333,36.5 51.5,36.5C 50.8333,36.5 50.1667,36.5 49.5,36.5C 49.7175,32.9405 50.7175,32.9405 52.5,36.5 Z"/></g>
<g><path style="opacity:0.608" fill="#f7bf70" d="M 75.5,33.5 C 76.5,33.5 77.5,33.5 78.5,33.5C 78.5,34.1667 78.5,34.8333 78.5,35.5C 77.8333,35.5 77.1667,35.5 76.5,35.5C 76.1667,35.5 75.8333,35.5 75.5,35.5C 75.5,34.8333 75.5,34.1667 75.5,33.5 Z"/></g>
<g><path style="opacity:0.812" fill="#dcb367" d="M 78.5,32.5 C 78.8333,32.5 79.1667,32.5 79.5,32.5C 79.5,33.8333 80.1667,34.5 81.5,34.5C 81.0679,35.7095 80.4013,36.7095 79.5,37.5C 79.6716,36.5084 79.3382,35.8417 78.5,35.5C 78.5,34.8333 78.5,34.1667 78.5,33.5C 78.5,33.1667 78.5,32.8333 78.5,32.5 Z"/></g>
<g><path style="opacity:1" fill="#d8bb75" d="M 35.5,35.5 C 36.1667,35.5 36.8333,35.5 37.5,35.5C 37.5,35.8333 37.5,36.1667 37.5,36.5C 36.6043,37.5063 35.9377,37.5063 35.5,36.5C 35.5,36.1667 35.5,35.8333 35.5,35.5 Z"/></g>
<g><path style="opacity:0.996" fill="#daa94f" d="M 76.5,35.5 C 77.1667,35.5 77.8333,35.5 78.5,35.5C 79.3382,35.8417 79.6716,36.5084 79.5,37.5C 77.9731,37.573 76.9731,36.9063 76.5,35.5 Z"/></g>
<g><path style="opacity:0.788" fill="#e8c082" d="M 37.5,36.5 C 37.5,36.1667 37.5,35.8333 37.5,35.5C 37.8333,35.5 38.1667,35.5 38.5,35.5C 39.1667,35.5 39.8333,35.5 40.5,35.5C 40.5,36.1667 40.5,36.8333 40.5,37.5C 40.1667,37.5 39.8333,37.5 39.5,37.5C 39.1583,36.6618 38.4916,36.3284 37.5,36.5 Z"/></g>
<g><path style="opacity:1" fill="#e1b167" d="M 44.5,34.5 C 44.5,35.1667 44.5,35.8333 44.5,36.5C 43.5,36.5 42.5,36.5 41.5,36.5C 41.5,37.5 41.5,38.5 41.5,39.5C 41.1667,39.5 40.8333,39.5 40.5,39.5C 40.5,38.8333 40.5,38.1667 40.5,37.5C 40.5,36.8333 40.5,36.1667 40.5,35.5C 40.8333,35.5 41.1667,35.5 41.5,35.5C 42.609,35.4431 43.609,35.1098 44.5,34.5 Z"/></g>
<g><path style="opacity:0.259" fill="#f9d39d" d="M 44.5,36.5 C 43.1938,37.4674 42.5271,38.8007 42.5,40.5C 41.8333,40.5 41.5,40.1667 41.5,39.5C 41.5,38.5 41.5,37.5 41.5,36.5C 42.5,36.5 43.5,36.5 44.5,36.5 Z"/></g>
<g><path style="opacity:1" fill="#e9b372" d="M 49.5,36.5 C 50.1667,36.5 50.8333,36.5 51.5,36.5C 51.5,37.1667 51.5,37.8333 51.5,38.5C 50.8333,38.5 50.1667,38.5 49.5,38.5C 49.5,37.8333 49.5,37.1667 49.5,36.5 Z"/></g>
<g><path style="opacity:0.282" fill="#d8b87f" d="M 75.5,35.5 C 75.8333,35.5 76.1667,35.5 76.5,35.5C 76.9731,36.9063 77.9731,37.573 79.5,37.5C 77.2911,38.9758 75.9577,38.3091 75.5,35.5 Z"/></g>
<g><path style="opacity:0.773" fill="#e4c292" d="M 51.5,36.5 C 51.8333,36.5 52.1667,36.5 52.5,36.5C 53.8146,37.8946 53.4812,38.8946 51.5,39.5C 51.5,39.1667 51.5,38.8333 51.5,38.5C 51.5,37.8333 51.5,37.1667 51.5,36.5 Z"/></g>
<g><path style="opacity:1" fill="#dea560" d="M 49.5,38.5 C 50.1667,38.5 50.8333,38.5 51.5,38.5C 51.5,38.8333 51.5,39.1667 51.5,39.5C 50.0755,41.0311 49.4088,40.6977 49.5,38.5 Z"/></g>
<g><path style="opacity:0.271" fill="#eed599" d="M 39.5,37.5 C 39.8333,37.5 40.1667,37.5 40.5,37.5C 40.5,38.1667 40.5,38.8333 40.5,39.5C 40.5,39.8333 40.5,40.1667 40.5,40.5C 39.5,40.5 38.5,40.5 37.5,40.5C 37.0618,40.5654 36.7284,40.3988 36.5,40C 38.1193,39.7645 39.1193,38.9311 39.5,37.5 Z"/></g>
<g><path style="opacity:0.722" fill="#efd07f" d="M 40.5,39.5 C 40.8333,39.5 41.1667,39.5 41.5,39.5C 41.5,40.1667 41.8333,40.5 42.5,40.5C 42.5,40.8333 42.5,41.1667 42.5,41.5C 41.8333,41.5 41.1667,41.5 40.5,41.5C 40.5,41.1667 40.5,40.8333 40.5,40.5C 40.5,40.1667 40.5,39.8333 40.5,39.5 Z"/></g>
<g><path style="opacity:0.992" fill="#d0ae77" d="M 90.5,40.5 C 89.1667,40.5 87.8333,40.5 86.5,40.5C 87.6649,37.9781 88.9982,37.9781 90.5,40.5 Z"/></g>
<g><path style="opacity:1" fill="#dab05d" d="M 37.5,40.5 C 38.5,40.5 39.5,40.5 40.5,40.5C 40.5,40.8333 40.5,41.1667 40.5,41.5C 40.5,41.8333 40.5,42.1667 40.5,42.5C 39.8333,42.5 39.1667,42.5 38.5,42.5C 37.8333,42.5 37.5,42.1667 37.5,41.5C 37.5,41.1667 37.5,40.8333 37.5,40.5 Z"/></g>
<g><path style="opacity:0.894" fill="#dfad5b" d="M 40.5,41.5 C 41.1667,41.5 41.8333,41.5 42.5,41.5C 43.1667,41.5 43.5,41.8333 43.5,42.5C 42.5084,42.3284 41.8417,42.6618 41.5,43.5C 40.8333,43.5 40.5,43.1667 40.5,42.5C 40.5,42.1667 40.5,41.8333 40.5,41.5 Z"/></g>
<g><path style="opacity:1" fill="#dab172" d="M 49.5,38.5 C 49.4088,40.6977 50.0755,41.0311 51.5,39.5C 51.8799,41.698 51.2132,43.3646 49.5,44.5C 49.7373,43.209 49.404,42.209 48.5,41.5C 48.2627,40.209 48.596,39.209 49.5,38.5 Z"/></g>
<g><path style="opacity:0.71" fill="#eac690" d="M 86.5,40.5 C 86.5,40.8333 86.5,41.1667 86.5,41.5C 86.5,42.1667 86.8333,42.5 87.5,42.5C 87.1583,43.3382 86.4916,43.6716 85.5,43.5C 84.5084,43.3284 83.8417,43.6618 83.5,44.5C 83.1667,44.5 82.8333,44.5 82.5,44.5C 82.6716,43.5084 82.3382,42.8417 81.5,42.5C 82.7804,41.0687 84.4471,40.4021 86.5,40.5 Z"/></g>
<g><path style="opacity:0.945" fill="#deb15e" d="M 86.5,41.5 C 86.5,41.1667 86.5,40.8333 86.5,40.5C 87.8333,40.5 89.1667,40.5 90.5,40.5C 91.1667,40.5 91.5,40.8333 91.5,41.5C 90.5084,41.3284 89.8417,41.6618 89.5,42.5C 88.8333,42.5 88.1667,42.5 87.5,42.5C 86.8333,42.5 86.5,42.1667 86.5,41.5 Z"/></g>
<g><path style="opacity:0.953" fill="#e0b15b" d="M 91.5,41.5 C 91.8333,41.5 92.1667,41.5 92.5,41.5C 92.5,41.8333 92.5,42.1667 92.5,42.5C 91.391,42.5569 90.391,42.8902 89.5,43.5C 89.5,43.1667 89.5,42.8333 89.5,42.5C 89.8417,41.6618 90.5084,41.3284 91.5,41.5 Z"/></g>
<g><path style="opacity:1" fill="#dda955" d="M 43.5,42.5 C 43.8333,42.5 44.1667,42.5 44.5,42.5C 44.5,43.5 44.5,44.5 44.5,45.5C 43.609,44.8902 42.609,44.5569 41.5,44.5C 41.5,44.1667 41.5,43.8333 41.5,43.5C 41.8417,42.6618 42.5084,42.3284 43.5,42.5 Z"/></g>
<g><path style="opacity:1" fill="#d8ac89" d="M 81.5,42.5 C 82.3382,42.8417 82.6716,43.5084 82.5,44.5C 80.5759,44.2893 80.2426,43.6226 81.5,42.5 Z"/></g>
<g><path style="opacity:0.922" fill="#c9ab76" d="M 92.5,41.5 C 95.1667,42.5 95.1667,43.5 92.5,44.5C 92.5,43.8333 92.5,43.1667 92.5,42.5C 92.5,42.1667 92.5,41.8333 92.5,41.5 Z"/></g>
<g><path style="opacity:1" fill="#e2b36a" d="M 37.5,41.5 C 37.5,42.1667 37.8333,42.5 38.5,42.5C 38.5,43.1667 38.5,43.8333 38.5,44.5C 37.5084,44.6716 36.8417,44.3382 36.5,43.5C 36.3284,42.5084 36.6618,41.8417 37.5,41.5 Z"/></g>
<g><path style="opacity:0.702" fill="#f8cb78" d="M 38.5,42.5 C 39.1667,42.5 39.8333,42.5 40.5,42.5C 40.5,43.1667 40.8333,43.5 41.5,43.5C 41.5,43.8333 41.5,44.1667 41.5,44.5C 40.5,44.5 39.5,44.5 38.5,44.5C 38.5,43.8333 38.5,43.1667 38.5,42.5 Z"/></g>
<g><path style="opacity:0.937" fill="#e1b148" d="M 44.5,42.5 C 45.1667,42.8333 45.8333,43.1667 46.5,43.5C 47.8333,43.5 48.5,44.1667 48.5,45.5C 47.1667,45.5 45.8333,45.5 44.5,45.5C 44.5,44.5 44.5,43.5 44.5,42.5 Z"/></g>
<g><path style="opacity:0.988" fill="#dea862" d="M 48.5,41.5 C 49.404,42.209 49.7373,43.209 49.5,44.5C 49.5,45.1667 49.1667,45.5 48.5,45.5C 48.5,44.1667 47.8333,43.5 46.5,43.5C 46.8333,42.5 47.5,41.8333 48.5,41.5 Z"/></g>
<g><path style="opacity:0.365" fill="#f8ca7e" d="M 87.5,42.5 C 88.1667,42.5 88.8333,42.5 89.5,42.5C 89.5,42.8333 89.5,43.1667 89.5,43.5C 88.5,44.1667 87.5,44.8333 86.5,45.5C 86.1667,44.8333 85.8333,44.1667 85.5,43.5C 86.4916,43.6716 87.1583,43.3382 87.5,42.5 Z"/></g>
<g><path style="opacity:1" fill="#d5a146" d="M 92.5,42.5 C 92.5,43.1667 92.5,43.8333 92.5,44.5C 92.1667,44.5 91.8333,44.5 91.5,44.5C 90.8333,44.5 90.1667,44.5 89.5,44.5C 89.5,44.1667 89.5,43.8333 89.5,43.5C 90.391,42.8902 91.391,42.5569 92.5,42.5 Z"/></g>
<g><path style="opacity:1" fill="#e4bf85" d="M 36.5,43.5 C 36.8417,44.3382 37.5084,44.6716 38.5,44.5C 38.8333,45.1667 39.1667,45.8333 39.5,46.5C 38.0357,45.5946 36.7024,45.5946 35.5,46.5C 35.1583,45.6618 34.4916,45.3284 33.5,45.5C 33.9731,44.0937 34.9731,43.427 36.5,43.5 Z"/></g>
<g><path style="opacity:0.502" fill="#fcd284" d="M 41.5,44.5 C 42.609,44.5569 43.609,44.8902 44.5,45.5C 44.5,45.8333 44.5,46.1667 44.5,46.5C 43.8333,46.5 43.1667,46.5 42.5,46.5C 42.1667,45.8333 41.8333,45.1667 41.5,44.5 Z"/></g>
<g><path style="opacity:1" fill="#d4a74d" d="M 66.5,43.5 C 66.6495,44.552 66.4828,45.552 66,46.5C 65.3292,45.7476 64.4959,45.4142 63.5,45.5C 63.5,45.1667 63.5,44.8333 63.5,44.5C 64.209,43.596 65.209,43.2627 66.5,43.5 Z"/></g>
<g><path style="opacity:0.812" fill="#e2b76d" d="M 85.5,43.5 C 85.8333,44.1667 86.1667,44.8333 86.5,45.5C 85.8333,45.5 85.1667,45.5 84.5,45.5C 83.8333,45.5 83.5,45.1667 83.5,44.5C 83.8417,43.6618 84.5084,43.3284 85.5,43.5 Z"/></g>
<g><path style="opacity:1" fill="#dea95b" d="M 89.5,43.5 C 89.5,43.8333 89.5,44.1667 89.5,44.5C 89.5,45.1667 89.5,45.8333 89.5,46.5C 88.209,46.7373 87.209,46.404 86.5,45.5C 87.5,44.8333 88.5,44.1667 89.5,43.5 Z"/></g>
<g><path style="opacity:0.098" fill="#e6ba6c" d="M 89.5,44.5 C 90.1667,44.5 90.8333,44.5 91.5,44.5C 91.1667,45.1667 90.8333,45.8333 90.5,46.5C 90.1667,46.5 89.8333,46.5 89.5,46.5C 89.5,45.8333 89.5,45.1667 89.5,44.5 Z"/></g>
<g><path style="opacity:0.937" fill="#e0b479" d="M 33.5,45.5 C 34.4916,45.3284 35.1583,45.6618 35.5,46.5C 35.0679,47.7095 34.4013,48.7095 33.5,49.5C 33.5,48.8333 33.5,48.1667 33.5,47.5C 33.5,46.8333 33.5,46.1667 33.5,45.5 Z"/></g>
<g><path style="opacity:1" fill="#dcb16f" d="M 38.5,44.5 C 39.5,44.5 40.5,44.5 41.5,44.5C 41.8333,45.1667 42.1667,45.8333 42.5,46.5C 41.5,46.5 40.5,46.5 39.5,46.5C 39.1667,45.8333 38.8333,45.1667 38.5,44.5 Z"/></g>
<g><path style="opacity:0.906" fill="#e1ae6d" d="M 63.5,44.5 C 63.5,44.8333 63.5,45.1667 63.5,45.5C 63.5,45.8333 63.5,46.1667 63.5,46.5C 62.8333,46.5 62.1667,46.5 61.5,46.5C 61.8333,45.5 62.5,44.8333 63.5,44.5 Z"/></g>
<g><path style="opacity:0.647" fill="#eac8a0" d="M 84.5,45.5 C 85.1667,45.5 85.8333,45.5 86.5,45.5C 87.209,46.404 88.209,46.7373 89.5,46.5C 89.8333,46.5 90.1667,46.5 90.5,46.5C 88.1853,49.1888 86.1853,48.8555 84.5,45.5 Z"/></g>
<g><path style="opacity:0.929" fill="#e1b876" d="M 33.5,45.5 C 33.5,46.1667 33.5,46.8333 33.5,47.5C 32.8333,47.5 32.1667,47.5 31.5,47.5C 31.8333,46.5 32.5,45.8333 33.5,45.5 Z"/></g>
<g><path style="opacity:0.388" fill="#ffdba2" d="M 59.5,45.5 C 60.1667,45.8333 60.8333,46.1667 61.5,46.5C 61.5,46.8333 61.5,47.1667 61.5,47.5C 60.8333,47.5 60.1667,47.5 59.5,47.5C 59.5,46.8333 59.5,46.1667 59.5,45.5 Z"/></g>
<g><path style="opacity:1" fill="#d9aa60" d="M 44.5,46.5 C 44.5,46.1667 44.5,45.8333 44.5,45.5C 45.8333,45.5 47.1667,45.5 48.5,45.5C 48.5,46.1667 48.5,46.8333 48.5,47.5C 47.7784,47.9175 47.2784,48.5842 47,49.5C 46.7645,47.8807 45.9311,46.8807 44.5,46.5 Z"/></g>
<g><path style="opacity:0.51" fill="#e0bf7b" d="M 59.5,45.5 C 59.5,46.1667 59.5,46.8333 59.5,47.5C 58.8333,47.5 58.5,47.8333 58.5,48.5C 58.1667,48.5 57.8333,48.5 57.5,48.5C 57.427,46.9731 58.0937,45.9731 59.5,45.5 Z"/></g>
<g><path style="opacity:0.553" fill="#fac776" d="M 63.5,46.5 C 64.3382,46.8417 64.6716,47.5084 64.5,48.5C 63.596,49.209 63.2627,50.209 63.5,51.5C 63.1667,51.5 62.8333,51.5 62.5,51.5C 62.5,51.1667 62.5,50.8333 62.5,50.5C 62.5,50.1667 62.5,49.8333 62.5,49.5C 62.5569,48.391 62.8902,47.391 63.5,46.5 Z"/></g>
<g><path style="opacity:1" fill="#dfa963" d="M 66.5,43.5 C 67.8333,44.8333 67.8333,46.1667 66.5,47.5C 65.8333,47.5 65.5,47.8333 65.5,48.5C 65.1667,48.5 64.8333,48.5 64.5,48.5C 64.6716,47.5084 64.3382,46.8417 63.5,46.5C 63.5,46.1667 63.5,45.8333 63.5,45.5C 64.4959,45.4142 65.3292,45.7476 66,46.5C 66.4828,45.552 66.6495,44.552 66.5,43.5 Z"/></g>
<g><path style="opacity:1" fill="#d7af68" d="M 31.5,47.5 C 32.1667,47.5 32.8333,47.5 33.5,47.5C 33.5,48.1667 33.5,48.8333 33.5,49.5C 33.5,58.8333 33.5,68.1667 33.5,77.5C 33.1667,77.5 32.8333,77.5 32.5,77.5C 32.5,76.8333 32.5,76.1667 32.5,75.5C 32.5,74.1667 32.5,72.8333 32.5,71.5C 32.5,70.5 32.5,69.5 32.5,68.5C 32.5,68.1667 32.5,67.8333 32.5,67.5C 32.5,66.1667 32.5,64.8333 32.5,63.5C 32.8938,59.0369 32.5605,56.0369 31.5,54.5C 31.1667,54.5 30.8333,54.5 30.5,54.5C 30.298,52.0504 30.6314,49.717 31.5,47.5 Z"/></g>
<g><path style="opacity:0.227" fill="#e5c184" d="M 39.5,46.5 C 40.5,46.5 41.5,46.5 42.5,46.5C 43.1667,46.5 43.8333,46.5 44.5,46.5C 45.9311,46.8807 46.7645,47.8807 47,49.5C 47.2784,48.5842 47.7784,47.9175 48.5,47.5C 48.5,49.5 48.5,51.5 48.5,53.5C 47.0335,50.7417 46.3668,51.075 46.5,54.5C 46.1667,54.5 45.8333,54.5 45.5,54.5C 45.5,52.5 45.5,50.5 45.5,48.5C 43.2143,48.405 41.2143,47.7384 39.5,46.5 Z"/></g>
<g><path style="opacity:0.937" fill="#daac58" d="M 59.5,47.5 C 60.1667,47.5 60.8333,47.5 61.5,47.5C 61.1667,48.1667 60.8333,48.8333 60.5,49.5C 59.5084,49.6716 58.8417,49.3382 58.5,48.5C 58.5,47.8333 58.8333,47.5 59.5,47.5 Z"/></g>
<g><path style="opacity:0.263" fill="#eab767" d="M 61.5,46.5 C 62.1667,46.5 62.8333,46.5 63.5,46.5C 62.8902,47.391 62.5569,48.391 62.5,49.5C 61.8333,49.5 61.1667,49.5 60.5,49.5C 60.8333,48.8333 61.1667,48.1667 61.5,47.5C 61.5,47.1667 61.5,46.8333 61.5,46.5 Z"/></g>
<g><path style="opacity:0.169" fill="#e8cb90" d="M 57.5,48.5 C 57.8333,48.5 58.1667,48.5 58.5,48.5C 58.8417,49.3382 59.5084,49.6716 60.5,49.5C 61.1667,49.5 61.8333,49.5 62.5,49.5C 62.5,49.8333 62.5,50.1667 62.5,50.5C 61.0695,50.4208 59.7362,50.7542 58.5,51.5C 57.6143,50.675 57.281,49.675 57.5,48.5 Z"/></g>
<g><path style="opacity:0.945" fill="#d8aa59" d="M 64.5,48.5 C 64.8333,48.5 65.1667,48.5 65.5,48.5C 64.8902,49.391 64.5569,50.391 64.5,51.5C 64.1667,51.5 63.8333,51.5 63.5,51.5C 63.2627,50.209 63.596,49.209 64.5,48.5 Z"/></g>
<g><path style="opacity:0.604" fill="#dfbb83" d="M 66.5,47.5 C 66.5979,49.5529 65.9313,51.2196 64.5,52.5C 64.5,52.1667 64.5,51.8333 64.5,51.5C 64.5569,50.391 64.8902,49.391 65.5,48.5C 65.5,47.8333 65.8333,47.5 66.5,47.5 Z"/></g>
<g><path style="opacity:1" fill="#cdaa58" d="M 48.5,53.5 C 48.5,53.8333 48.5,54.1667 48.5,54.5C 48.1667,54.5 47.8333,54.5 47.5,54.5C 47.1667,54.5 46.8333,54.5 46.5,54.5C 46.3668,51.075 47.0335,50.7417 48.5,53.5 Z"/></g>
<g><path style="opacity:0.98" fill="#dabc86" d="M 57.5,53.5 C 56.1667,53.5 54.8333,53.5 53.5,53.5C 53.5,53.1667 53.5,52.8333 53.5,52.5C 55.0012,51.5573 56.3346,51.8906 57.5,53.5 Z"/></g>
<g><path style="opacity:1" fill="#e0b576" d="M 62.5,51.5 C 62.8333,51.5 63.1667,51.5 63.5,51.5C 63.8333,51.5 64.1667,51.5 64.5,51.5C 64.5,51.8333 64.5,52.1667 64.5,52.5C 64.5,53.8333 63.8333,54.5 62.5,54.5C 62.5,53.8333 62.1667,53.5 61.5,53.5C 61.5,53.1667 61.5,52.8333 61.5,52.5C 61.5,51.8333 61.8333,51.5 62.5,51.5 Z"/></g>
<g><path style="opacity:0.886" fill="#dbbb6e" d="M 61.5,52.5 C 61.5,52.8333 61.5,53.1667 61.5,53.5C 61.1583,54.3382 60.4916,54.6716 59.5,54.5C 59.8333,53.5 60.5,52.8333 61.5,52.5 Z"/></g>
<g><path style="opacity:0.878" fill="#dbb783" d="M 45.5,54.5 C 45.8333,54.5 46.1667,54.5 46.5,54.5C 46.8333,54.5 47.1667,54.5 47.5,54.5C 47.5,55.1667 47.5,55.8333 47.5,56.5C 46.5,56.1667 45.8333,55.5 45.5,54.5 Z"/></g>
<g><path style="opacity:0.267" fill="#f6cc82" d="M 48.5,53.5 C 49.391,54.1098 50.391,54.4431 51.5,54.5C 51.5,55.1667 51.1667,55.5 50.5,55.5C 49.5084,55.6716 48.8417,55.3382 48.5,54.5C 48.5,54.1667 48.5,53.8333 48.5,53.5 Z"/></g>
<g><path style="opacity:0.976" fill="#e8bf6c" d="M 53.5,52.5 C 53.5,52.8333 53.5,53.1667 53.5,53.5C 54.8333,54.5 54.8333,55.5 53.5,56.5C 53.1667,56.5 52.8333,56.5 52.5,56.5C 52.5,55.5 52.5,54.5 52.5,53.5C 52.5,52.8333 52.8333,52.5 53.5,52.5 Z"/></g>
<g><path style="opacity:0.882" fill="#dca655" d="M 57.5,54.5 C 57.5,55.1667 57.5,55.8333 57.5,56.5C 57.5,57.1667 57.1667,57.5 56.5,57.5C 55.8333,57.5 55.5,57.1667 55.5,56.5C 55.5,55.1667 56.1667,54.5 57.5,54.5 Z"/></g>
<g><path style="opacity:1" fill="#d29e4f" d="M 47.5,54.5 C 47.8333,54.5 48.1667,54.5 48.5,54.5C 48.8417,55.3382 49.5084,55.6716 50.5,55.5C 49.791,56.404 48.791,56.7373 47.5,56.5C 47.5,55.8333 47.5,55.1667 47.5,54.5 Z"/></g>
<g><path style="opacity:0.922" fill="#e1b06a" d="M 52.5,53.5 C 52.5,54.5 52.5,55.5 52.5,56.5C 50.7163,57.7199 49.0496,57.7199 47.5,56.5C 48.791,56.7373 49.791,56.404 50.5,55.5C 51.1667,55.5 51.5,55.1667 51.5,54.5C 51.5,53.8333 51.8333,53.5 52.5,53.5 Z"/></g>
<g><path style="opacity:0.082" fill="#e7b973" d="M 53.5,53.5 C 54.8333,53.5 56.1667,53.5 57.5,53.5C 57.5,53.8333 57.5,54.1667 57.5,54.5C 56.1667,54.5 55.5,55.1667 55.5,56.5C 54.8333,56.5 54.1667,56.5 53.5,56.5C 54.8333,55.5 54.8333,54.5 53.5,53.5 Z"/></g>
<g><path style="opacity:1" fill="#dab463" d="M 57.5,54.5 C 58.1667,54.5 58.8333,54.5 59.5,54.5C 59.5,55.1667 59.5,55.8333 59.5,56.5C 59.1667,56.5 58.8333,56.5 58.5,56.5C 58.1667,56.5 57.8333,56.5 57.5,56.5C 57.5,55.8333 57.5,55.1667 57.5,54.5 Z"/></g>
<g><path style="opacity:0.898" fill="#d4aa56" d="M 61.5,53.5 C 62.1667,53.5 62.5,53.8333 62.5,54.5C 62.1667,55.5 61.5,56.1667 60.5,56.5C 60.1667,56.5 59.8333,56.5 59.5,56.5C 59.5,55.8333 59.5,55.1667 59.5,54.5C 60.4916,54.6716 61.1583,54.3382 61.5,53.5 Z"/></g>
<g><path style="opacity:0.529" fill="#facf60" d="M 30.5,54.5 C 30.8333,54.5 31.1667,54.5 31.5,54.5C 31.5,56.1667 31.5,57.8333 31.5,59.5C 30.8333,59.1667 30.1667,58.8333 29.5,58.5C 29.8333,57.1667 30.1667,55.8333 30.5,54.5 Z"/></g>
<g><path style="opacity:1" fill="#d8a862" d="M 57.5,56.5 C 57.8333,56.5 58.1667,56.5 58.5,56.5C 58.5,57.1667 58.5,57.8333 58.5,58.5C 58.6716,59.4916 58.3382,60.1583 57.5,60.5C 56.8902,59.609 56.5569,58.609 56.5,57.5C 57.1667,57.5 57.5,57.1667 57.5,56.5 Z"/></g>
<g><path style="opacity:0.914" fill="#e7b153" d="M 58.5,56.5 C 58.8333,56.5 59.1667,56.5 59.5,56.5C 59.8333,56.5 60.1667,56.5 60.5,56.5C 60.5,56.8333 60.5,57.1667 60.5,57.5C 59.8333,57.8333 59.1667,58.1667 58.5,58.5C 58.5,57.8333 58.5,57.1667 58.5,56.5 Z"/></g>
<g><path style="opacity:0.878" fill="#e4ac6a" d="M 29.5,58.5 C 30.1667,58.8333 30.8333,59.1667 31.5,59.5C 30.962,61.1172 30.6287,62.7839 30.5,64.5C 30.5,65.5 30.5,66.5 30.5,67.5C 30.5,68.5 30.5,69.5 30.5,70.5C 30.1667,70.5 29.8333,70.5 29.5,70.5C 29.5,66.5 29.5,62.5 29.5,58.5 Z"/></g>
<g><path style="opacity:0.788" fill="#e0b050" d="M 60.5,57.5 C 60.5,57.8333 60.5,58.1667 60.5,58.5C 60.5,59.5 60.5,60.5 60.5,61.5C 59.5,61.5 58.5,61.5 57.5,61.5C 57.5,61.1667 57.5,60.8333 57.5,60.5C 58.3382,60.1583 58.6716,59.4916 58.5,58.5C 59.1667,58.1667 59.8333,57.8333 60.5,57.5 Z"/></g>
<g><path style="opacity:0.878" fill="#e4b97b" d="M 60.5,58.5 C 63.1667,59.8333 63.1667,61.1667 60.5,62.5C 60.5,62.1667 60.5,61.8333 60.5,61.5C 60.5,60.5 60.5,59.5 60.5,58.5 Z"/></g>
<g><path style="opacity:0.831" fill="#e2ae57" d="M 32.5,63.5 C 31.8333,63.8333 31.1667,64.1667 30.5,64.5C 30.6287,62.7839 30.962,61.1172 31.5,59.5C 31.5,57.8333 31.5,56.1667 31.5,54.5C 32.5605,56.0369 32.8938,59.0369 32.5,63.5 Z"/></g>
<g><path style="opacity:1" fill="#e3ad66" d="M 57.5,61.5 C 58.5,61.5 59.5,61.5 60.5,61.5C 60.5,61.8333 60.5,62.1667 60.5,62.5C 59.5,63.1667 58.5,63.8333 57.5,64.5C 55.3023,64.5912 54.9689,63.9245 56.5,62.5C 56.5,61.8333 56.8333,61.5 57.5,61.5 Z"/></g>
<g><path style="opacity:0.11" fill="#ecdec3" d="M 45.5,65.5 C 44.1667,65.5 43.5,66.1667 43.5,67.5C 41.7274,66.6857 41.2274,65.3524 42,63.5C 43.3024,64.0848 44.469,64.7515 45.5,65.5 Z"/></g>
<g><path style="opacity:1" fill="#eac585" d="M 56.5,62.5 C 54.9689,63.9245 55.3023,64.5912 57.5,64.5C 56.4863,65.6737 55.153,66.3404 53.5,66.5C 53.6716,65.5084 53.3382,64.8417 52.5,64.5C 53.5137,63.3263 54.847,62.6596 56.5,62.5 Z"/></g>
<g><path style="opacity:0.949" fill="#dca54f" d="M 32.5,63.5 C 32.5,64.8333 32.5,66.1667 32.5,67.5C 31.8333,67.5 31.1667,67.5 30.5,67.5C 30.5,66.5 30.5,65.5 30.5,64.5C 31.1667,64.1667 31.8333,63.8333 32.5,63.5 Z"/></g>
<g><path style="opacity:0.745" fill="#eed681" d="M 46.5,65.5 C 47.1667,65.5 47.8333,65.5 48.5,65.5C 47.8902,66.391 47.5569,67.391 47.5,68.5C 46.5084,68.6716 45.8417,68.3382 45.5,67.5C 46.3382,67.1583 46.6716,66.4916 46.5,65.5 Z"/></g>
<g><path style="opacity:1" fill="#e2bb82" d="M 52.5,64.5 C 52.1667,65.1667 51.8333,65.8333 51.5,66.5C 50.6618,66.8417 50.3284,67.5084 50.5,68.5C 49.5,68.5 48.5,68.5 47.5,68.5C 47.5569,67.391 47.8902,66.391 48.5,65.5C 49.5676,64.5655 50.901,64.2322 52.5,64.5 Z"/></g>
<g><path style="opacity:0.992" fill="#d4b067" d="M 52.5,64.5 C 53.3382,64.8417 53.6716,65.5084 53.5,66.5C 52.8333,66.5 52.1667,66.5 51.5,66.5C 51.8333,65.8333 52.1667,65.1667 52.5,64.5 Z"/></g>
<g><path style="opacity:0.639" fill="#e4d097" d="M 45.5,65.5 C 45.8333,65.5 46.1667,65.5 46.5,65.5C 46.6716,66.4916 46.3382,67.1583 45.5,67.5C 44.8333,67.5 44.1667,67.5 43.5,67.5C 43.5,66.1667 44.1667,65.5 45.5,65.5 Z"/></g>
<g><path style="opacity:0.22" fill="#f8de94" d="M 51.5,66.5 C 52.1667,66.5 52.8333,66.5 53.5,66.5C 52.7095,67.4013 51.7095,68.0679 50.5,68.5C 50.3284,67.5084 50.6618,66.8417 51.5,66.5 Z"/></g>
<g><path style="opacity:0.894" fill="#dda64c" d="M 30.5,67.5 C 31.1667,67.5 31.8333,67.5 32.5,67.5C 32.5,67.8333 32.5,68.1667 32.5,68.5C 31.8333,69.1667 31.1667,69.8333 30.5,70.5C 30.5,69.5 30.5,68.5 30.5,67.5 Z"/></g>
<g><path style="opacity:1" fill="#e1b047" d="M 32.5,68.5 C 32.5,69.5 32.5,70.5 32.5,71.5C 31.8333,71.5 31.1667,71.5 30.5,71.5C 29.8333,71.5 29.5,71.1667 29.5,70.5C 29.8333,70.5 30.1667,70.5 30.5,70.5C 31.1667,69.8333 31.8333,69.1667 32.5,68.5 Z"/></g>
<g><path style="opacity:0.859" fill="#deac58" d="M 30.5,71.5 C 31.1667,71.5 31.8333,71.5 32.5,71.5C 32.5,72.8333 32.5,74.1667 32.5,75.5C 31.8333,75.5 31.1667,75.5 30.5,75.5C 29.3143,74.2946 29.3143,72.9613 30.5,71.5 Z"/></g>
<g><path style="opacity:0.647" fill="#f3dcc3" d="M 58.5,73.5 C 57.5084,73.3284 56.8417,73.6618 56.5,74.5C 55.3172,73.4955 53.9839,72.6622 52.5,72C 54.8805,71.2615 56.8805,71.7615 58.5,73.5 Z"/></g>
<g><path style="opacity:0.973" fill="#e8cb9c" d="M 58.5,73.5 C 59.7095,73.9321 60.7095,74.5987 61.5,75.5C 60.209,75.2627 59.209,75.596 58.5,76.5C 57.5,76.1667 56.8333,75.5 56.5,74.5C 56.8417,73.6618 57.5084,73.3284 58.5,73.5 Z"/></g>
<g><path style="opacity:0.925" fill="#e1af5e" d="M 30.5,76.5 C 30.5,76.1667 30.5,75.8333 30.5,75.5C 31.1667,75.5 31.8333,75.5 32.5,75.5C 32.5,76.1667 32.5,76.8333 32.5,77.5C 32.631,78.2389 32.4643,78.9056 32,79.5C 31.7679,78.2625 31.2679,77.2625 30.5,76.5 Z"/></g>
<g><path style="opacity:0.8" fill="#e6c57e" d="M 61.5,75.5 C 62.1667,75.5 62.5,75.8333 62.5,76.5C 60.3023,76.4088 59.9689,77.0755 61.5,78.5C 61.5,78.8333 61.5,79.1667 61.5,79.5C 60.1667,78.8333 59.1667,77.8333 58.5,76.5C 59.209,75.596 60.209,75.2627 61.5,75.5 Z"/></g>
<g><path style="opacity:0.894" fill="#e1b368" d="M 62.5,76.5 C 62.8333,76.5 63.1667,76.5 63.5,76.5C 63.5,77.8333 62.8333,78.5 61.5,78.5C 59.9689,77.0755 60.3023,76.4088 62.5,76.5 Z"/></g>
<g><path style="opacity:0.949" fill="#e3bc8b" d="M 63.5,76.5 C 64.1667,76.5 64.5,76.8333 64.5,77.5C 64.5,78.1667 64.5,78.8333 64.5,79.5C 64.5,79.8333 64.5,80.1667 64.5,80.5C 64.1667,80.5 63.8333,80.5 63.5,80.5C 62.8333,80.1667 62.1667,79.8333 61.5,79.5C 61.5,79.1667 61.5,78.8333 61.5,78.5C 62.8333,78.5 63.5,77.8333 63.5,76.5 Z"/></g>
<g><path style="opacity:0.82" fill="#efcfa1" d="M 64.5,77.5 C 65.5,77.8333 66.1667,78.5 66.5,79.5C 65.8333,79.5 65.1667,79.5 64.5,79.5C 64.5,78.8333 64.5,78.1667 64.5,77.5 Z"/></g>
<g><path style="opacity:1" fill="#d4b471" d="M 64.5,80.5 C 64.5,80.1667 64.5,79.8333 64.5,79.5C 65.1667,79.5 65.8333,79.5 66.5,79.5C 67.1667,79.8333 67.8333,80.1667 68.5,80.5C 68.5,81.1667 68.5,81.8333 68.5,82.5C 67.609,81.8902 66.609,81.5569 65.5,81.5C 65.5,80.8333 65.1667,80.5 64.5,80.5 Z"/></g>
<g><path style="opacity:0.741" fill="#f0bc8d" d="M 30.5,80.5 C 31.4916,80.3284 32.1583,80.6618 32.5,81.5C 32.5,81.8333 32.5,82.1667 32.5,82.5C 32.1667,82.5 31.8333,82.5 31.5,82.5C 31.1667,81.8333 30.8333,81.1667 30.5,80.5 Z"/></g>
<g><path style="opacity:1" fill="#e6ba74" d="M 30.5,76.5 C 31.2679,77.2625 31.7679,78.2625 32,79.5C 32.4643,78.9056 32.631,78.2389 32.5,77.5C 32.8333,77.5 33.1667,77.5 33.5,77.5C 33.8333,78.8333 34.1667,80.1667 34.5,81.5C 33.8333,81.5 33.1667,81.5 32.5,81.5C 32.1583,80.6618 31.4916,80.3284 30.5,80.5C 30.5,79.1667 30.5,77.8333 30.5,76.5 Z"/></g>
<g><path style="opacity:0.502" fill="#fbe69a" d="M 63.5,80.5 C 63.8333,80.5 64.1667,80.5 64.5,80.5C 65.1667,80.5 65.5,80.8333 65.5,81.5C 65.5,81.8333 65.5,82.1667 65.5,82.5C 64.5,82.1667 63.8333,81.5 63.5,80.5 Z"/></g>
<g><path style="opacity:0.906" fill="#deb46a" d="M 32.5,82.5 C 32.5,82.1667 32.5,81.8333 32.5,81.5C 33.1667,81.5 33.8333,81.5 34.5,81.5C 38.0641,82.4227 41.7307,82.756 45.5,82.5C 45.5,82.8333 45.5,83.1667 45.5,83.5C 44.791,84.404 43.791,84.7373 42.5,84.5C 41.3784,83.8442 40.0451,83.5108 38.5,83.5C 36.6672,83.5854 35.3339,84.2521 34.5,85.5C 34.1667,85.5 33.8333,85.5 33.5,85.5C 33.5,85.1667 33.5,84.8333 33.5,84.5C 33.6716,83.5084 33.3382,82.8417 32.5,82.5 Z"/></g>
<g><path style="opacity:0.741" fill="#eedc98" d="M 65.5,82.5 C 65.5,82.1667 65.5,81.8333 65.5,81.5C 66.609,81.5569 67.609,81.8902 68.5,82.5C 68.5,82.8333 68.5,83.1667 68.5,83.5C 67.391,83.4431 66.391,83.1098 65.5,82.5 Z"/></g>
<g><path style="opacity:0.843" fill="#e4c48b" d="M 68.5,80.5 C 69.5,80.8333 70.1667,81.5 70.5,82.5C 69.8333,82.5 69.1667,82.5 68.5,82.5C 68.5,81.8333 68.5,81.1667 68.5,80.5 Z"/></g>
<g><path style="opacity:0.506" fill="#f6dd65" d="M 31.5,82.5 C 31.8333,82.5 32.1667,82.5 32.5,82.5C 33.3382,82.8417 33.6716,83.5084 33.5,84.5C 33.1667,84.5 32.8333,84.5 32.5,84.5C 32.1667,83.8333 31.8333,83.1667 31.5,82.5 Z"/></g>
<g><path style="opacity:0.445" fill="#f7e7ce" d="M 51.5,82.5 C 52.5,82.5 53.5,82.5 54.5,82.5C 55.1667,83.1667 55.8333,83.8333 56.5,84.5C 55.5,84.5 54.5,84.5 53.5,84.5C 52.8333,83.8333 52.1667,83.1667 51.5,82.5 Z"/></g>
<g><path style="opacity:0.302" fill="#ecdfd4" d="M 54.5,82.5 C 59.3558,82.1375 60.0224,82.8042 56.5,84.5C 55.8333,83.8333 55.1667,83.1667 54.5,82.5 Z"/></g>
<g><path style="opacity:0.878" fill="#e7ca8a" d="M 68.5,82.5 C 69.1667,82.5 69.8333,82.5 70.5,82.5C 71.3382,82.8417 71.6716,83.5084 71.5,84.5C 70.0755,82.9689 69.4088,83.3023 69.5,85.5C 68.6618,85.1583 68.3284,84.4916 68.5,83.5C 68.5,83.1667 68.5,82.8333 68.5,82.5 Z"/></g>
<g><path style="opacity:0.792" fill="#efd987" d="M 45.5,83.5 C 47.1172,84.038 48.7839,84.3713 50.5,84.5C 48.0521,85.4731 45.3854,85.8064 42.5,85.5C 42.5,85.1667 42.5,84.8333 42.5,84.5C 43.791,84.7373 44.791,84.404 45.5,83.5 Z"/></g>
<g><path style="opacity:0.722" fill="#edd2a8" d="M 45.5,83.5 C 45.5,83.1667 45.5,82.8333 45.5,82.5C 47.5,82.5 49.5,82.5 51.5,82.5C 52.1667,83.1667 52.8333,83.8333 53.5,84.5C 52.5,84.5 51.5,84.5 50.5,84.5C 48.7839,84.3713 47.1172,84.038 45.5,83.5 Z"/></g>
<g><path style="opacity:1" fill="#dda957" d="M 42.5,84.5 C 42.5,84.8333 42.5,85.1667 42.5,85.5C 40.5,85.5 38.5,85.5 36.5,85.5C 36.5,86.5 36.5,87.5 36.5,88.5C 36.1667,88.5 35.8333,88.5 35.5,88.5C 35.5,88.1667 35.5,87.8333 35.5,87.5C 35.6716,86.5084 35.3382,85.8417 34.5,85.5C 35.3339,84.2521 36.6672,83.5854 38.5,83.5C 40.0451,83.5108 41.3784,83.8442 42.5,84.5 Z"/></g>
<g><path style="opacity:0.898" fill="#dab460" d="M 71.5,84.5 C 71.5,85.8333 70.8333,86.5 69.5,86.5C 69.5,86.1667 69.5,85.8333 69.5,85.5C 69.4088,83.3023 70.0755,82.9689 71.5,84.5 Z"/></g>
<g><path style="opacity:0.847" fill="#e0bb85" d="M 32.5,84.5 C 32.1667,85.1667 31.8333,85.8333 31.5,86.5C 30.8333,86.5 30.1667,86.5 29.5,86.5C 29.9731,85.0937 30.9731,84.427 32.5,84.5 Z"/></g>
<g><path style="opacity:1" fill="#d6aa64" d="M 32.5,84.5 C 32.8333,84.5 33.1667,84.5 33.5,84.5C 33.5,84.8333 33.5,85.1667 33.5,85.5C 33.5,85.8333 33.5,86.1667 33.5,86.5C 32.8333,86.5 32.1667,86.5 31.5,86.5C 31.8333,85.8333 32.1667,85.1667 32.5,84.5 Z"/></g>
<g><path style="opacity:1" fill="#e0b169" d="M 29.5,87.5 C 29.5,87.1667 29.5,86.8333 29.5,86.5C 30.1667,86.5 30.8333,86.5 31.5,86.5C 31.5,87.1667 31.5,87.8333 31.5,88.5C 31.1667,88.5 30.8333,88.5 30.5,88.5C 30.5,87.8333 30.1667,87.5 29.5,87.5 Z"/></g>
<g><path style="opacity:0.894" fill="#d6a83f" d="M 33.5,85.5 C 33.8333,85.5 34.1667,85.5 34.5,85.5C 35.3382,85.8417 35.6716,86.5084 35.5,87.5C 34.8333,87.5 34.1667,87.5 33.5,87.5C 33.5,87.1667 33.5,86.8333 33.5,86.5C 33.5,86.1667 33.5,85.8333 33.5,85.5 Z"/></g>
<g><path style="opacity:0.792" fill="#e4c489" d="M 29.5,86.5 C 29.5,86.8333 29.5,87.1667 29.5,87.5C 29.1583,88.3382 28.4916,88.6716 27.5,88.5C 27.8333,87.5 28.5,86.8333 29.5,86.5 Z"/></g>
<g><path style="opacity:0.325" fill="#f8c580" d="M 31.5,86.5 C 32.1667,86.5 32.8333,86.5 33.5,86.5C 33.5,86.8333 33.5,87.1667 33.5,87.5C 33.5,88.1667 33.5,88.8333 33.5,89.5C 33.1667,89.5 32.8333,89.5 32.5,89.5C 32.5,88.8333 32.1667,88.5 31.5,88.5C 31.5,87.8333 31.5,87.1667 31.5,86.5 Z"/></g>
<g><path style="opacity:0.282" fill="#d7ae61" d="M 29.5,87.5 C 30.1667,87.5 30.5,87.8333 30.5,88.5C 30.5,89.1667 30.1667,89.5 29.5,89.5C 28.5084,89.6716 27.8417,89.3382 27.5,88.5C 28.4916,88.6716 29.1583,88.3382 29.5,87.5 Z"/></g>
<g><path style="opacity:0.949" fill="#daad4b" d="M 33.5,87.5 C 34.1667,87.5 34.8333,87.5 35.5,87.5C 35.5,87.8333 35.5,88.1667 35.5,88.5C 35.5,88.8333 35.5,89.1667 35.5,89.5C 34.8333,89.5 34.1667,89.5 33.5,89.5C 33.5,88.8333 33.5,88.1667 33.5,87.5 Z"/></g>
<g><path style="opacity:0.573" fill="#ddb577" d="M 27.5,88.5 C 27.8417,89.3382 28.5084,89.6716 29.5,89.5C 29.5,89.8333 29.5,90.1667 29.5,90.5C 28.8333,90.5 28.1667,90.5 27.5,90.5C 26.234,91.0899 24.9007,91.5899 23.5,92C 25.4727,92.4955 27.4727,92.6621 29.5,92.5C 29.5,92.8333 29.5,93.1667 29.5,93.5C 27.1667,93.5 24.8333,93.5 22.5,93.5C 22.5,92.5 22.5,91.5 22.5,90.5C 24.5138,90.6085 26.1805,89.9418 27.5,88.5 Z"/></g>
<g><path style="opacity:1" fill="#dba54a" d="M 33.5,89.5 C 34.1667,89.5 34.8333,89.5 35.5,89.5C 35.5,90.1667 35.5,90.8333 35.5,91.5C 35.5,91.8333 35.5,92.1667 35.5,92.5C 34.8333,92.5 34.1667,92.5 33.5,92.5C 33.5,92.1667 33.5,91.8333 33.5,91.5C 33.5,90.8333 33.5,90.1667 33.5,89.5 Z"/></g>
<g><path style="opacity:0.239" fill="#ebbb76" d="M 35.5,88.5 C 35.8333,88.5 36.1667,88.5 36.5,88.5C 36.3284,89.4916 36.6618,90.1583 37.5,90.5C 37.1583,91.3382 36.4916,91.6716 35.5,91.5C 35.5,90.8333 35.5,90.1667 35.5,89.5C 35.5,89.1667 35.5,88.8333 35.5,88.5 Z"/></g>
<g><path style="opacity:0.992" fill="#e4b871" d="M 71.5,84.5 C 72.6225,86.2884 72.7891,88.2884 72,90.5C 71.5831,91.756 70.7498,92.4226 69.5,92.5C 69.6716,91.5084 69.3382,90.8417 68.5,90.5C 68.1667,90.5 67.8333,90.5 67.5,90.5C 68.8062,89.5326 69.4729,88.1993 69.5,86.5C 70.8333,86.5 71.5,85.8333 71.5,84.5 Z"/></g>
<g><path style="opacity:0.129" fill="#e4af66" d="M 32.5,89.5 C 32.8333,89.5 33.1667,89.5 33.5,89.5C 33.5,90.1667 33.5,90.8333 33.5,91.5C 32.8333,91.5 32.1667,91.5 31.5,91.5C 31.8333,90.8333 32.1667,90.1667 32.5,89.5 Z"/></g>
<g><path style="opacity:0.78" fill="#d6a65e" d="M 67.5,90.5 C 67.8333,90.5 68.1667,90.5 68.5,90.5C 68.5,91.1667 68.1667,91.5 67.5,91.5C 66.5084,91.3284 65.8417,91.6618 65.5,92.5C 64.8333,92.5 64.1667,92.5 63.5,92.5C 63.5,92.1667 63.5,91.8333 63.5,91.5C 64.7079,90.7659 66.0413,90.4326 67.5,90.5 Z"/></g>
<g><path style="opacity:1" fill="#da9f4a" d="M 27.5,90.5 C 28.1667,91.1667 28.8333,91.8333 29.5,92.5C 27.4727,92.6621 25.4727,92.4955 23.5,92C 24.9007,91.5899 26.234,91.0899 27.5,90.5 Z"/></g>
<g><path style="opacity:1" fill="#d8ae51" d="M 27.5,90.5 C 28.1667,90.5 28.8333,90.5 29.5,90.5C 30.1667,90.8333 30.8333,91.1667 31.5,91.5C 32.1667,91.5 32.8333,91.5 33.5,91.5C 33.5,91.8333 33.5,92.1667 33.5,92.5C 32.5084,92.3284 31.8417,92.6618 31.5,93.5C 30.8333,93.5 30.1667,93.5 29.5,93.5C 29.5,93.1667 29.5,92.8333 29.5,92.5C 28.8333,91.8333 28.1667,91.1667 27.5,90.5 Z"/></g>
<g><path style="opacity:0.98" fill="#e0b97b" d="M 37.5,90.5 C 39.7354,90.2053 41.7354,90.5386 43.5,91.5C 41.5853,91.2155 39.9187,91.5489 38.5,92.5C 37.828,93.2674 36.9947,93.9341 36,94.5C 35.6012,94.2716 35.4346,93.9382 35.5,93.5C 35.5,93.1667 35.5,92.8333 35.5,92.5C 35.5,92.1667 35.5,91.8333 35.5,91.5C 36.4916,91.6716 37.1583,91.3382 37.5,90.5 Z"/></g>
<g><path style="opacity:1" fill="#c8a059" d="M 46.5,90.5 C 47.5,90.5 48.5,90.5 49.5,90.5C 49.5,91.1667 49.5,91.8333 49.5,92.5C 48.8333,92.5 48.1667,92.5 47.5,92.5C 46.6618,92.1583 46.3284,91.4916 46.5,90.5 Z"/></g>
<g><path style="opacity:1" fill="#dba961" d="M 49.5,90.5 C 50.1667,90.8333 50.8333,91.1667 51.5,91.5C 54.2869,92.4767 57.2869,92.81 60.5,92.5C 60.5,92.8333 60.5,93.1667 60.5,93.5C 56.8333,93.5 53.1667,93.5 49.5,93.5C 49.5,93.1667 49.5,92.8333 49.5,92.5C 49.5,91.8333 49.5,91.1667 49.5,90.5 Z"/></g>
<g><path style="opacity:1" fill="#ce9e5e" d="M 62.5,90.5 C 61.8333,91.1667 61.1667,91.8333 60.5,92.5C 57.2869,92.81 54.2869,92.4767 51.5,91.5C 55.2622,90.8221 58.9288,90.4888 62.5,90.5 Z"/></g>
<g><path style="opacity:1" fill="#d7b142" d="M 62.5,90.5 C 63.1667,90.5 63.5,90.8333 63.5,91.5C 63.5,91.8333 63.5,92.1667 63.5,92.5C 62.5,92.5 61.5,92.5 60.5,92.5C 61.1667,91.8333 61.8333,91.1667 62.5,90.5 Z"/></g>
<g><path style="opacity:0.992" fill="#d9b551" d="M 67.5,91.5 C 67.8417,92.3382 68.5084,92.6716 69.5,92.5C 68.3285,93.3446 66.9952,94.0113 65.5,94.5C 65.5,93.8333 65.5,93.1667 65.5,92.5C 65.8417,91.6618 66.5084,91.3284 67.5,91.5 Z"/></g>
<g><path style="opacity:0.882" fill="#daa047" d="M 68.5,90.5 C 69.3382,90.8417 69.6716,91.5084 69.5,92.5C 68.5084,92.6716 67.8417,92.3382 67.5,91.5C 68.1667,91.5 68.5,91.1667 68.5,90.5 Z"/></g>
<g><path style="opacity:1" fill="#dec24c" d="M 31.5,93.5 C 31.8417,92.6618 32.5084,92.3284 33.5,92.5C 33.5,93.1667 33.5,93.8333 33.5,94.5C 32.8333,94.1667 32.1667,93.8333 31.5,93.5 Z"/></g>
<g><path style="opacity:0.98" fill="#cfad5f" d="M 33.5,92.5 C 34.1667,92.5 34.8333,92.5 35.5,92.5C 35.5,92.8333 35.5,93.1667 35.5,93.5C 34.8333,93.8333 34.1667,94.1667 33.5,94.5C 33.5,93.8333 33.5,93.1667 33.5,92.5 Z"/></g>
<g><path style="opacity:0.043" fill="#e5b76f" d="M 38.5,92.5 C 39.9187,91.5489 41.5853,91.2155 43.5,91.5C 44.1667,91.5 44.8333,91.5 45.5,91.5C 45.5,92.1667 45.5,92.8333 45.5,93.5C 43.0971,93.552 40.7638,93.2186 38.5,92.5 Z"/></g>
<g><path style="opacity:0.918" fill="#e0b858" d="M 46.5,90.5 C 46.3284,91.4916 46.6618,92.1583 47.5,92.5C 47.5,92.8333 47.5,93.1667 47.5,93.5C 46.8333,93.5 46.1667,93.5 45.5,93.5C 45.5,92.8333 45.5,92.1667 45.5,91.5C 45.5,90.8333 45.8333,90.5 46.5,90.5 Z"/></g>
<g><path style="opacity:0.784" fill="#f0ca62" d="M 47.5,93.5 C 47.5,93.1667 47.5,92.8333 47.5,92.5C 48.1667,92.5 48.8333,92.5 49.5,92.5C 49.5,92.8333 49.5,93.1667 49.5,93.5C 49.0623,94.5063 48.3957,94.5063 47.5,93.5 Z"/></g>
<g><path style="opacity:1" fill="#deb54a" d="M 60.5,93.5 C 60.5,93.1667 60.5,92.8333 60.5,92.5C 61.5,92.5 62.5,92.5 63.5,92.5C 64.1667,92.5 64.8333,92.5 65.5,92.5C 65.5,93.1667 65.5,93.8333 65.5,94.5C 63.9582,93.6993 62.2915,93.366 60.5,93.5 Z"/></g>
</svg>
