<?xml version="1.0" encoding="UTF-8"?>
<!DOCTYPE svg PUBLIC "-//W3C//DTD SVG 1.1//EN" "http://www.w3.org/Graphics/SVG/1.1/DTD/svg11.dtd">
<svg xmlns="http://www.w3.org/2000/svg" version="1.1" width="142px" height="129px" style="shape-rendering:geometricPrecision; text-rendering:geometricPrecision; image-rendering:optimizeQuality; fill-rule:evenodd; clip-rule:evenodd" xmlns:xlink="http://www.w3.org/1999/xlink">
<g><path style="opacity:1" fill="#e5bcae" d="M 48.5,35.5 C 52.1485,34.3748 55.8151,34.7082 59.5,36.5C 59.1583,37.3382 58.4916,37.6716 57.5,37.5C 55.5,37.5 53.5,37.5 51.5,37.5C 51.9175,36.7784 52.5842,36.2784 53.5,36C 51.8659,35.5065 50.1992,35.3398 48.5,35.5 Z"/></g>
<g><path style="opacity:0.773" fill="#e3a488" d="M 91.5,36.5 C 91.631,37.2389 91.4643,37.9056 91,38.5C 90.3292,37.7476 89.4959,37.4142 88.5,37.5C 86.8333,37.5 85.1667,37.5 83.5,37.5C 82.8333,37.5 82.5,37.1667 82.5,36.5C 85.5,35.1667 88.5,35.1667 91.5,36.5 Z"/></g>
<g><path style="opacity:0.894" fill="#dc977a" d="M 48.5,35.5 C 50.1992,35.3398 51.8659,35.5065 53.5,36C 52.5842,36.2784 51.9175,36.7784 51.5,37.5C 51.1667,37.5 50.8333,37.5 50.5,37.5C 49.5,37.5 48.5,37.5 47.5,37.5C 47.3284,36.5084 47.6618,35.8417 48.5,35.5 Z"/></g>
<g><path style="opacity:0.573" fill="#efcdc3" d="M 79.5,37.5 C 80.209,36.596 81.209,36.2627 82.5,36.5C 82.5,37.1667 82.8333,37.5 83.5,37.5C 83.1583,38.3382 82.4916,38.6716 81.5,38.5C 81.1583,37.6618 80.4916,37.3284 79.5,37.5 Z"/></g>
<g><path style="opacity:0.439" fill="#fbe9e6" d="M 59.5,36.5 C 61.6062,36.7622 62.7729,37.7622 63,39.5C 61.2084,39.3982 59.3751,38.7316 57.5,37.5C 58.4916,37.6716 59.1583,37.3382 59.5,36.5 Z"/></g>
<g><path style="opacity:0.925" fill="#f4c1b7" d="M 47.5,37.5 C 48.5,37.5 49.5,37.5 50.5,37.5C 50.2041,39.403 49.5375,41.0697 48.5,42.5C 48.8693,40.0065 48.2027,39.3398 46.5,40.5C 46.5,40.1667 46.5,39.8333 46.5,39.5C 46.3284,38.5084 46.6618,37.8417 47.5,37.5 Z"/></g>
<g><path style="opacity:1" fill="#ddb29e" d="M 79.5,37.5 C 80.4916,37.3284 81.1583,37.6618 81.5,38.5C 80.4863,39.6737 79.153,40.3404 77.5,40.5C 76.3684,39.6457 75.035,39.6457 73.5,40.5C 74.911,38.461 76.911,37.461 79.5,37.5 Z"/></g>
<g><path style="opacity:1" fill="#e4c5b6" d="M 91.5,36.5 C 92.9313,37.7804 93.5979,39.4471 93.5,41.5C 92.5084,41.3284 91.8417,41.6618 91.5,42.5C 90.6923,40.7798 89.6923,39.1131 88.5,37.5C 89.4959,37.4142 90.3292,37.7476 91,38.5C 91.4643,37.9056 91.631,37.2389 91.5,36.5 Z"/></g>
<g><path style="opacity:0.961" fill="#daa591" d="M 77.5,40.5 C 76.205,41.4884 74.8717,42.4884 73.5,43.5C 73.5,43.1667 73.5,42.8333 73.5,42.5C 73.5,41.8333 73.5,41.1667 73.5,40.5C 75.035,39.6457 76.3684,39.6457 77.5,40.5 Z"/></g>
<g><path style="opacity:0.22" fill="#fbd7c7" d="M 73.5,40.5 C 73.5,41.1667 73.5,41.8333 73.5,42.5C 72.1667,43.1667 70.8333,43.8333 69.5,44.5C 69.894,42.2901 71.2273,40.9568 73.5,40.5 Z"/></g>
<g><path style="opacity:1" fill="#c79588" d="M 48.5,42.5 C 46.7973,43.6602 46.1307,42.9935 46.5,40.5C 48.2027,39.3398 48.8693,40.0065 48.5,42.5 Z"/></g>
<g><path style="opacity:1" fill="#f0cfc2" d="M 46.5,39.5 C 46.5,39.8333 46.5,40.1667 46.5,40.5C 46.1307,42.9935 46.7973,43.6602 48.5,42.5C 48.0733,45.0098 47.4067,47.3432 46.5,49.5C 46.7678,47.901 46.4345,46.5676 45.5,45.5C 45.2053,43.2646 45.5386,41.2646 46.5,39.5 Z"/></g>
<g><path style="opacity:1" fill="#c89288" d="M 73.5,42.5 C 73.5,42.8333 73.5,43.1667 73.5,43.5C 73.1667,44.5 72.5,45.1667 71.5,45.5C 70.8333,45.8333 70.1667,46.1667 69.5,46.5C 69.5,45.8333 69.5,45.1667 69.5,44.5C 70.8333,43.8333 72.1667,43.1667 73.5,42.5 Z"/></g>
<g><path style="opacity:0.443" fill="#f6c2ab" d="M 93.5,41.5 C 94.9395,43.588 95.6061,45.9214 95.5,48.5C 94.5902,46.9812 93.7568,45.3146 93,43.5C 92.51,44.7932 92.3433,46.1266 92.5,47.5C 91.5489,46.0813 91.2155,44.4147 91.5,42.5C 91.8417,41.6618 92.5084,41.3284 93.5,41.5 Z"/></g>
<g><path style="opacity:1" fill="#d3a58e" d="M 45.5,45.5 C 46.4345,46.5676 46.7678,47.901 46.5,49.5C 46.4431,50.609 46.1098,51.609 45.5,52.5C 44.5655,51.4324 44.2322,50.099 44.5,48.5C 44.2627,47.209 44.596,46.209 45.5,45.5 Z"/></g>
<g><path style="opacity:0.725" fill="#f7cccb" d="M 71.5,45.5 C 71.5,46.5 71.5,47.5 71.5,48.5C 70.8333,48.5 70.1667,48.5 69.5,48.5C 69.5,47.8333 69.5,47.1667 69.5,46.5C 70.1667,46.1667 70.8333,45.8333 71.5,45.5 Z"/></g>
<g><path style="opacity:1" fill="#d79980" d="M 95.5,48.5 C 95.5,49.1667 95.5,49.8333 95.5,50.5C 94.5655,51.5676 94.2322,52.901 94.5,54.5C 93.3882,52.4006 92.7215,50.0673 92.5,47.5C 92.3433,46.1266 92.51,44.7932 93,43.5C 93.7568,45.3146 94.5902,46.9812 95.5,48.5 Z"/></g>
<g><path style="opacity:0.847" fill="#e7bfb7" d="M 69.5,48.5 C 70.1667,48.5 70.8333,48.5 71.5,48.5C 71.5,49.1667 71.5,49.8333 71.5,50.5C 70.8333,50.8333 70.1667,51.1667 69.5,51.5C 69.5,50.5 69.5,49.5 69.5,48.5 Z"/></g>
<g><path style="opacity:0.004" fill="#fff8f0" d="M 95.5,48.5 C 97.8624,50.919 98.8624,53.919 98.5,57.5C 98.1667,57.5 97.8333,57.5 97.5,57.5C 97.7373,56.209 97.404,55.209 96.5,54.5C 96.7678,52.901 96.4345,51.5676 95.5,50.5C 95.5,49.8333 95.5,49.1667 95.5,48.5 Z"/></g>
<g><path style="opacity:0.059" fill="#feeeed" d="M 98.5,50.5 C 99.8333,51.1667 99.8333,51.1667 98.5,50.5 Z"/></g>
<g><path style="opacity:1" fill="#d59680" d="M 95.5,50.5 C 96.4345,51.5676 96.7678,52.901 96.5,54.5C 95.5655,55.5676 95.2322,56.901 95.5,58.5C 94.5655,57.4324 94.2322,56.099 94.5,54.5C 94.2322,52.901 94.5655,51.5676 95.5,50.5 Z"/></g>
<g><path style="opacity:0.929" fill="#f4c1aa" d="M 44.5,48.5 C 44.2322,50.099 44.5655,51.4324 45.5,52.5C 45.7845,54.4147 45.4511,56.0813 44.5,57.5C 44.7678,55.901 44.4345,54.5676 43.5,53.5C 43.2155,51.5853 43.5489,49.9187 44.5,48.5 Z"/></g>
<g><path style="opacity:0.916" fill="#f2d3ca" d="M 71.5,50.5 C 71.5,51.8333 71.5,53.1667 71.5,54.5C 69.9519,54.1788 69.2852,53.1788 69.5,51.5C 70.1667,51.1667 70.8333,50.8333 71.5,50.5 Z"/></g>
<g><path style="opacity:0.306" fill="#eaded3" d="M 99.5,52.5 C 100.833,53.1667 100.833,53.1667 99.5,52.5 Z"/></g>
<g><path style="opacity:0.035" fill="#f6e3da" d="M 37.5,55.5 C 37.5,54.8333 37.1667,54.5 36.5,54.5C 36.9867,53.5266 37.4867,52.5266 38,51.5C 38.765,53.0657 38.5983,54.3991 37.5,55.5 Z"/></g>
<g><path style="opacity:0.424" fill="#fff7f0" d="M 69.5,44.5 C 69.5,45.1667 69.5,45.8333 69.5,46.5C 69.5,47.1667 69.5,47.8333 69.5,48.5C 69.5,49.5 69.5,50.5 69.5,51.5C 69.2852,53.1788 69.9519,54.1788 71.5,54.5C 71.5,54.8333 71.5,55.1667 71.5,55.5C 70.1667,55.5 69.5,56.1667 69.5,57.5C 68.1667,53.1667 68.1667,48.8333 69.5,44.5 Z"/></g>
<g><path style="opacity:1" fill="#d19584" d="M 43.5,53.5 C 44.4345,54.5676 44.7678,55.901 44.5,57.5C 44.5,57.8333 44.5,58.1667 44.5,58.5C 44.1667,58.5 43.8333,58.5 43.5,58.5C 43.6716,57.5084 43.3382,56.8417 42.5,56.5C 42.2627,55.209 42.596,54.209 43.5,53.5 Z"/></g>
<g><path style="opacity:0.243" fill="#f3e1d9" d="M 101.5,56.5 C 100.833,56.5 100.5,56.8333 100.5,57.5C 99.2241,56.6136 99.2241,55.6136 100.5,54.5C 101.298,54.9569 101.631,55.6236 101.5,56.5 Z"/></g>
<g><path style="opacity:0.71" fill="#d0b6a8" d="M 36.5,54.5 C 37.1667,54.5 37.5,54.8333 37.5,55.5C 38.8333,56.5 38.8333,57.5 37.5,58.5C 36.6618,58.1583 36.3284,57.4916 36.5,56.5C 36.5,55.8333 36.5,55.1667 36.5,54.5 Z"/></g>
<g><path style="opacity:0.337" fill="#f4e5dd" d="M 71.5,55.5 C 71.719,56.675 71.3857,57.675 70.5,58.5C 69.8933,58.3764 69.56,58.0431 69.5,57.5C 69.5,56.1667 70.1667,55.5 71.5,55.5 Z"/></g>
<g><path style="opacity:1" fill="#cb785b" d="M 96.5,54.5 C 97.404,55.209 97.7373,56.209 97.5,57.5C 97.5,58.8333 97.5,60.1667 97.5,61.5C 96.8333,60.5 96.1667,59.5 95.5,58.5C 95.2322,56.901 95.5655,55.5676 96.5,54.5 Z"/></g>
<g><path style="opacity:0.173" fill="#ead0c6" d="M 101.5,56.5 C 102.404,57.209 102.737,58.209 102.5,59.5C 101.833,59.5 101.5,59.8333 101.5,60.5C 100.596,59.791 100.263,58.791 100.5,57.5C 100.5,56.8333 100.833,56.5 101.5,56.5 Z"/></g>
<g><path style="opacity:0.976" fill="#db916f" d="M 42.5,56.5 C 43.3382,56.8417 43.6716,57.5084 43.5,58.5C 43.9227,60.7812 43.256,62.4479 41.5,63.5C 40.9033,63.2648 40.5699,62.7648 40.5,62C 40.9537,59.9701 41.6204,58.1368 42.5,56.5 Z"/></g>
<g><path style="opacity:0.337" fill="#fbc199" d="M 95.5,58.5 C 96.1667,59.5 96.8333,60.5 97.5,61.5C 97.1583,62.3382 96.4916,62.6716 95.5,62.5C 95.5,61.1667 95.5,59.8333 95.5,58.5 Z"/></g>
<g><path style="opacity:0.396" fill="#ecccc1" d="M 36.5,56.5 C 36.3284,57.4916 36.6618,58.1583 37.5,58.5C 36.8902,59.391 36.5569,60.391 36.5,61.5C 35.8333,61.8333 35.1667,62.1667 34.5,62.5C 34.8751,60.3024 35.5418,58.3024 36.5,56.5 Z"/></g>
<g><path style="opacity:0.588" fill="#eac0a4" d="M 102.5,59.5 C 103.11,60.391 103.443,61.391 103.5,62.5C 102.833,62.5 102.5,62.8333 102.5,63.5C 102.167,63.5 101.833,63.5 101.5,63.5C 101.5,62.5 101.5,61.5 101.5,60.5C 101.5,59.8333 101.833,59.5 102.5,59.5 Z"/></g>
<g><path style="opacity:0.6" fill="#deb9af" d="M 36.5,61.5 C 37.1157,62.2022 37.1157,63.2022 36.5,64.5C 36.1667,64.5 35.8333,64.5 35.5,64.5C 35.5,63.8333 35.1667,63.5 34.5,63.5C 34.5,63.1667 34.5,62.8333 34.5,62.5C 35.1667,62.1667 35.8333,61.8333 36.5,61.5 Z"/></g>
<g><path style="opacity:1" fill="#e1b6a3" d="M 97.5,57.5 C 97.8333,57.5 98.1667,57.5 98.5,57.5C 99.5109,59.4024 99.6776,61.4024 99,63.5C 98.3292,64.2524 97.4959,64.5858 96.5,64.5C 95.791,63.596 94.791,63.2627 93.5,63.5C 93.8417,62.6618 94.5084,62.3284 95.5,62.5C 96.4916,62.6716 97.1583,62.3382 97.5,61.5C 97.5,60.1667 97.5,58.8333 97.5,57.5 Z"/></g>
<g><path style="opacity:1" fill="#e4b4a1" d="M 43.5,58.5 C 43.8333,58.5 44.1667,58.5 44.5,58.5C 44.3653,60.5542 45.032,62.2209 46.5,63.5C 45.1667,63.5 44.5,64.1667 44.5,65.5C 43.2905,65.0679 42.2905,64.4013 41.5,63.5C 43.256,62.4479 43.9227,60.7812 43.5,58.5 Z"/></g>
<g><path style="opacity:1" fill="#d47c5d" d="M 46.5,63.5 C 46.8333,63.5 47.1667,63.5 47.5,63.5C 47.5,64.8333 46.8333,65.5 45.5,65.5C 45.1667,65.5 44.8333,65.5 44.5,65.5C 44.5,64.1667 45.1667,63.5 46.5,63.5 Z"/></g>
<g><path style="opacity:1" fill="#deaa9d" d="M 93.5,63.5 C 91.9689,64.9245 92.3023,65.5912 94.5,65.5C 93.791,66.404 92.791,66.7373 91.5,66.5C 90.5084,66.6716 89.8417,66.3382 89.5,65.5C 90.5137,64.3263 91.847,63.6596 93.5,63.5 Z"/></g>
<g><path style="opacity:1" fill="#d08367" d="M 93.5,63.5 C 94.791,63.2627 95.791,63.596 96.5,64.5C 96.1583,65.3382 95.4916,65.6716 94.5,65.5C 92.3023,65.5912 91.9689,64.9245 93.5,63.5 Z"/></g>
<g><path style="opacity:0.702" fill="#e6ab95" d="M 47.5,63.5 C 48.5,63.8333 49.1667,64.5 49.5,65.5C 48.8333,65.5 48.5,65.8333 48.5,66.5C 47.209,66.7373 46.209,66.404 45.5,65.5C 46.8333,65.5 47.5,64.8333 47.5,63.5 Z"/></g>
<g><path style="opacity:0.094" fill="#fcded0" d="M 101.5,63.5 C 101.833,63.5 102.167,63.5 102.5,63.5C 102.843,65.4832 102.176,66.8166 100.5,67.5C 101.234,66.2921 101.567,64.9587 101.5,63.5 Z"/></g>
<g><path style="opacity:1" fill="#d89885" d="M 34.5,63.5 C 35.1667,63.5 35.5,63.8333 35.5,64.5C 35.5,65.5 35.5,66.5 35.5,67.5C 36.5,67.5 37.5,67.5 38.5,67.5C 38.1583,68.3382 37.4916,68.6716 36.5,68.5C 31.9058,68.2598 31.2391,66.5931 34.5,63.5 Z"/></g>
<g><path style="opacity:0.337" fill="#fbd1b7" d="M 35.5,64.5 C 35.8333,64.5 36.1667,64.5 36.5,64.5C 36.7822,65.7777 37.4489,66.7777 38.5,67.5C 37.5,67.5 36.5,67.5 35.5,67.5C 35.5,66.5 35.5,65.5 35.5,64.5 Z"/></g>
<g><path style="opacity:1" fill="#d18465" d="M 49.5,65.5 C 50.1667,65.5 50.8333,65.5 51.5,65.5C 51.6716,66.4916 51.3382,67.1583 50.5,67.5C 49.5084,67.6716 48.8417,67.3382 48.5,66.5C 48.5,65.8333 48.8333,65.5 49.5,65.5 Z"/></g>
<g><path style="opacity:0.961" fill="#f1c1a6" d="M 87.5,66.5 C 87.8417,65.6618 88.5084,65.3284 89.5,65.5C 89.8417,66.3382 90.5084,66.6716 91.5,66.5C 90.7095,67.4013 89.7095,68.0679 88.5,68.5C 88.6716,67.5084 88.3382,66.8417 87.5,66.5 Z"/></g>
<g><path style="opacity:1" fill="#d4a38a" d="M 103.5,62.5 C 104.339,63.6412 105.006,64.9745 105.5,66.5C 104.995,67.9185 103.995,68.5852 102.5,68.5C 101.508,68.6716 100.842,68.3382 100.5,67.5C 102.176,66.8166 102.843,65.4832 102.5,63.5C 102.5,62.8333 102.833,62.5 103.5,62.5 Z"/></g>
<g><path style="opacity:1" fill="#d2a292" d="M 51.5,65.5 C 52.5,65.8333 53.1667,66.5 53.5,67.5C 52.8333,67.5 52.5,67.8333 52.5,68.5C 51.5084,68.6716 50.8417,68.3382 50.5,67.5C 51.3382,67.1583 51.6716,66.4916 51.5,65.5 Z"/></g>
<g><path style="opacity:0.969" fill="#d8aa96" d="M 85.5,67.5 C 85.8417,66.6618 86.5084,66.3284 87.5,66.5C 88.3382,66.8417 88.6716,67.5084 88.5,68.5C 87.8333,68.8333 87.1667,69.1667 86.5,69.5C 86.6716,68.5084 86.3382,67.8417 85.5,67.5 Z"/></g>
<g><path style="opacity:0.576" fill="#efb2a6" d="M 38.5,67.5 C 39.4916,67.3284 40.1583,67.6618 40.5,68.5C 39.8333,68.8333 39.1667,69.1667 38.5,69.5C 37.5084,69.6716 36.8417,69.3382 36.5,68.5C 37.4916,68.6716 38.1583,68.3382 38.5,67.5 Z"/></g>
<g><path style="opacity:0.992" fill="#cf8670" d="M 53.5,67.5 C 53.8333,67.5 54.1667,67.5 54.5,67.5C 55.5063,68.3957 55.5063,69.0623 54.5,69.5C 53.5084,69.6716 52.8417,69.3382 52.5,68.5C 52.5,67.8333 52.8333,67.5 53.5,67.5 Z"/></g>
<g><path style="opacity:1" fill="#dfbdac" d="M 54.5,67.5 C 56.153,67.6596 57.4863,68.3263 58.5,69.5C 57.5084,69.3284 56.8417,69.6618 56.5,70.5C 55.5084,70.6716 54.8417,70.3382 54.5,69.5C 55.5063,69.0623 55.5063,68.3957 54.5,67.5 Z"/></g>
<g><path style="opacity:1" fill="#e5a99d" d="M 83.5,68.5 C 83.8417,67.6618 84.5084,67.3284 85.5,67.5C 86.3382,67.8417 86.6716,68.5084 86.5,69.5C 85.609,70.1098 84.609,70.4431 83.5,70.5C 84.5063,69.6043 84.5063,68.9377 83.5,68.5 Z"/></g>
<g><path style="opacity:0.859" fill="#f8c4b9" d="M 98.5,68.5 C 98.8417,67.6618 99.5084,67.3284 100.5,67.5C 100.842,68.3382 101.508,68.6716 102.5,68.5C 101.713,70.1042 100.38,70.7709 98.5,70.5C 99.5063,69.6043 99.5063,68.9377 98.5,68.5 Z"/></g>
<g><path style="opacity:0.863" fill="#ddbba7" d="M 40.5,68.5 C 41.4916,68.3284 42.1583,68.6618 42.5,69.5C 41.5084,69.3284 40.8417,69.6618 40.5,70.5C 39.5084,70.6716 38.8417,70.3382 38.5,69.5C 39.1667,69.1667 39.8333,68.8333 40.5,68.5 Z"/></g>
<g><path style="opacity:0.604" fill="#e4ad9b" d="M 42.5,69.5 C 44.153,69.6596 45.4863,70.3263 46.5,71.5C 45.8333,71.5 45.5,71.8333 45.5,72.5C 43.597,72.2041 41.9303,71.5375 40.5,70.5C 40.8417,69.6618 41.5084,69.3284 42.5,69.5 Z"/></g>
<g><path style="opacity:1" fill="#cd9587" d="M 81.5,69.5 C 81.8417,68.6618 82.5084,68.3284 83.5,68.5C 84.5063,68.9377 84.5063,69.6043 83.5,70.5C 83.5,71.1667 83.1667,71.5 82.5,71.5C 82.6716,70.5084 82.3382,69.8417 81.5,69.5 Z"/></g>
<g><path style="opacity:1" fill="#c08976" d="M 98.5,68.5 C 99.5063,68.9377 99.5063,69.6043 98.5,70.5C 97.5084,70.6716 96.8417,70.3382 96.5,69.5C 96.8417,68.6618 97.5084,68.3284 98.5,68.5 Z"/></g>
<g><path style="opacity:0.49" fill="#ebbc9a" d="M 58.5,69.5 C 59.4916,69.3284 60.1583,69.6618 60.5,70.5C 59.5084,70.3284 58.8417,70.6618 58.5,71.5C 57.5084,71.6716 56.8417,71.3382 56.5,70.5C 56.8417,69.6618 57.5084,69.3284 58.5,69.5 Z"/></g>
<g><path style="opacity:0.835" fill="#d09980" d="M 60.5,70.5 C 61.4916,70.3284 62.1583,70.6618 62.5,71.5C 61.5084,71.3284 60.8417,71.6618 60.5,72.5C 59.5084,72.6716 58.8417,72.3382 58.5,71.5C 58.8417,70.6618 59.5084,70.3284 60.5,70.5 Z"/></g>
<g><path style="opacity:1" fill="#c67a57" d="M 80.5,69.5 C 80.8333,69.5 81.1667,69.5 81.5,69.5C 82.3382,69.8417 82.6716,70.5084 82.5,71.5C 82.1667,71.5 81.8333,71.5 81.5,71.5C 79.3023,71.5912 78.9689,70.9245 80.5,69.5 Z"/></g>
<g><path style="opacity:1" fill="#e4b7a5" d="M 96.5,69.5 C 96.8417,70.3382 97.5084,70.6716 98.5,70.5C 97.4863,71.6737 96.153,72.3404 94.5,72.5C 94.1583,71.6618 93.4916,71.3284 92.5,71.5C 93.5137,70.3263 94.847,69.6596 96.5,69.5 Z"/></g>
<g><path style="opacity:0.863" fill="#d79783" d="M 62.5,71.5 C 64.8185,71.9925 66.8185,72.9925 68.5,74.5C 68.5,75.1667 68.1667,75.5 67.5,75.5C 64.9823,74.7362 62.649,73.7362 60.5,72.5C 60.8417,71.6618 61.5084,71.3284 62.5,71.5 Z"/></g>
<g><path style="opacity:0.941" fill="#d4a292" d="M 80.5,69.5 C 78.9689,70.9245 79.3023,71.5912 81.5,71.5C 80.3285,72.3446 78.9952,73.0113 77.5,73.5C 77.1667,72.8333 76.8333,72.1667 76.5,71.5C 77.6049,70.3995 78.9382,69.7329 80.5,69.5 Z"/></g>
<g><path style="opacity:0.808" fill="#e0a586" d="M 46.5,71.5 C 47.4916,71.3284 48.1583,71.6618 48.5,72.5C 47.8333,72.5 47.5,72.8333 47.5,73.5C 46.5084,73.6716 45.8417,73.3382 45.5,72.5C 45.5,71.8333 45.8333,71.5 46.5,71.5 Z"/></g>
<g><path style="opacity:0.988" fill="#dca790" d="M 92.5,71.5 C 93.4916,71.3284 94.1583,71.6618 94.5,72.5C 92.5739,73.4861 90.5739,74.4861 88.5,75.5C 88.6716,74.5084 88.3382,73.8417 87.5,73.5C 88.9303,72.4625 90.597,71.7959 92.5,71.5 Z"/></g>
<g><path style="opacity:0.89" fill="#d2a991" d="M 48.5,72.5 C 49.4916,72.3284 50.1583,72.6618 50.5,73.5C 49.8333,73.5 49.5,73.8333 49.5,74.5C 48.5084,74.6716 47.8417,74.3382 47.5,73.5C 47.5,72.8333 47.8333,72.5 48.5,72.5 Z"/></g>
<g><path style="opacity:0.643" fill="#e8ac98" d="M 50.5,73.5 C 52.3797,73.2291 53.713,73.8958 54.5,75.5C 52.965,74.6457 51.6316,74.6457 50.5,75.5C 49.8333,75.5 49.5,75.1667 49.5,74.5C 49.5,73.8333 49.8333,73.5 50.5,73.5 Z"/></g>
<g><path style="opacity:1" fill="#dca994" d="M 76.5,71.5 C 76.8333,72.1667 77.1667,72.8333 77.5,73.5C 74.1737,75.3665 70.8404,76.0331 67.5,75.5C 68.1667,75.5 68.5,75.1667 68.5,74.5C 71.1716,73.4986 73.8382,72.4986 76.5,71.5 Z"/></g>
<g><path style="opacity:0.722" fill="#eb9e87" d="M 87.5,73.5 C 88.3382,73.8417 88.6716,74.5084 88.5,75.5C 88.5,75.8333 88.5,76.1667 88.5,76.5C 87.1667,76.1667 85.8333,75.8333 84.5,75.5C 84.9731,74.0937 85.9731,73.427 87.5,73.5 Z"/></g>
<g><path style="opacity:0.875" fill="#ce7d5b" d="M 50.5,75.5 C 51.6316,74.6457 52.965,74.6457 54.5,75.5C 54.8333,75.5 55.1667,75.5 55.5,75.5C 54.8333,76.1667 54.1667,76.8333 53.5,77.5C 53.1667,77.5 52.8333,77.5 52.5,77.5C 51.8333,76.8333 51.1667,76.1667 50.5,75.5 Z"/></g>
<g><path style="opacity:0.949" fill="#e5b2a5" d="M 50.5,75.5 C 51.1667,76.1667 51.8333,76.8333 52.5,77.5C 52.1583,78.3382 51.4916,78.6716 50.5,78.5C 50.1583,77.6618 49.4916,77.3284 48.5,77.5C 49.1667,76.8333 49.8333,76.1667 50.5,75.5 Z"/></g>
<g><path style="opacity:0.863" fill="#e9b495" d="M 55.5,75.5 C 56.4916,75.3284 57.1583,75.6618 57.5,76.5C 56.8333,76.5 56.5,76.8333 56.5,77.5C 55.5,77.5 54.5,77.5 53.5,77.5C 54.1667,76.8333 54.8333,76.1667 55.5,75.5 Z"/></g>
<g><path style="opacity:0.624" fill="#e1aa9e" d="M 57.5,76.5 C 58.791,76.2627 59.791,76.596 60.5,77.5C 59.5084,77.3284 58.8417,77.6618 58.5,78.5C 57.5084,78.6716 56.8417,78.3382 56.5,77.5C 56.5,76.8333 56.8333,76.5 57.5,76.5 Z"/></g>
<g><path style="opacity:0.867" fill="#cd7457" d="M 84.5,75.5 C 85.8333,75.8333 87.1667,76.1667 88.5,76.5C 88.1583,77.3382 87.4916,77.6716 86.5,77.5C 86.1667,77.5 85.8333,77.5 85.5,77.5C 85.1667,76.8333 84.8333,76.1667 84.5,75.5 Z"/></g>
<g><path style="opacity:1" fill="#d38b6f" d="M 48.5,77.5 C 49.4916,77.3284 50.1583,77.6618 50.5,78.5C 49.4863,79.6737 48.153,80.3404 46.5,80.5C 45.6618,80.1583 45.3284,79.4916 45.5,78.5C 46.391,77.8902 47.391,77.5569 48.5,77.5 Z"/></g>
<g><path style="opacity:0.796" fill="#d4a48f" d="M 84.5,75.5 C 84.8333,76.1667 85.1667,76.8333 85.5,77.5C 84.1667,77.8333 82.8333,78.1667 81.5,78.5C 81.5,77.8333 81.1667,77.5 80.5,77.5C 81.5137,76.3263 82.847,75.6596 84.5,75.5 Z"/></g>
<g><path style="opacity:1" fill="#e5ad93" d="M 88.5,76.5 C 89.4916,76.3284 90.1583,76.6618 90.5,77.5C 89.6618,77.8417 89.3284,78.5084 89.5,79.5C 88.2905,79.0679 87.2905,78.4013 86.5,77.5C 87.4916,77.6716 88.1583,77.3382 88.5,76.5 Z"/></g>
<g><path style="opacity:0.949" fill="#de9d84" d="M 60.5,77.5 C 61.4916,77.3284 62.1583,77.6618 62.5,78.5C 60.3023,78.4088 59.9689,79.0755 61.5,80.5C 59.9731,80.573 58.9731,79.9063 58.5,78.5C 58.8417,77.6618 59.5084,77.3284 60.5,77.5 Z"/></g>
<g><path style="opacity:0.973" fill="#dea891" d="M 75.5,79.5 C 75.5,78.8333 75.8333,78.5 76.5,78.5C 77.391,79.1098 78.391,79.4431 79.5,79.5C 78.7095,80.4013 77.7095,81.0679 76.5,81.5C 76.6716,80.5084 76.3382,79.8417 75.5,79.5 Z"/></g>
<g><path style="opacity:0.882" fill="#d2876f" d="M 76.5,78.5 C 77.5676,77.5655 78.901,77.2322 80.5,77.5C 81.1667,77.5 81.5,77.8333 81.5,78.5C 81.1583,79.3382 80.4916,79.6716 79.5,79.5C 78.391,79.4431 77.391,79.1098 76.5,78.5 Z"/></g>
<g><path style="opacity:0.831" fill="#e28d73" d="M 90.5,77.5 C 91.4916,77.3284 92.1583,77.6618 92.5,78.5C 92.1583,79.3382 91.4916,79.6716 90.5,79.5C 90.1667,79.5 89.8333,79.5 89.5,79.5C 89.3284,78.5084 89.6618,77.8417 90.5,77.5 Z"/></g>
<g><path style="opacity:1" fill="#dfaf9a" d="M 45.5,78.5 C 45.3284,79.4916 45.6618,80.1583 46.5,80.5C 45.4863,81.6737 44.153,82.3404 42.5,82.5C 41.6618,82.1583 41.3284,81.4916 41.5,80.5C 42.8333,79.8333 44.1667,79.1667 45.5,78.5 Z"/></g>
<g><path style="opacity:1" fill="#d9a797" d="M 92.5,78.5 C 94.5786,78.9707 96.5786,79.6373 98.5,80.5C 98.5,81.1667 98.5,81.8333 98.5,82.5C 95.3511,82.5848 92.6845,81.5848 90.5,79.5C 91.4916,79.6716 92.1583,79.3382 92.5,78.5 Z"/></g>
<g><path style="opacity:0.949" fill="#da937a" d="M 62.5,78.5 C 63.9952,78.9887 65.3285,79.6554 66.5,80.5C 65.5084,80.3284 64.8417,80.6618 64.5,81.5C 63.391,81.4431 62.391,81.1098 61.5,80.5C 59.9689,79.0755 60.3023,78.4088 62.5,78.5 Z"/></g>
<g><path style="opacity:1" fill="#d59c82" d="M 66.5,80.5 C 67.791,80.2627 68.791,80.596 69.5,81.5C 68.209,81.2627 67.209,81.596 66.5,82.5C 65.5084,82.6716 64.8417,82.3382 64.5,81.5C 64.8417,80.6618 65.5084,80.3284 66.5,80.5 Z"/></g>
<g><path style="opacity:1" fill="#d6836b" d="M 71.5,81.5 C 71.8417,80.6618 72.5084,80.3284 73.5,80.5C 74.3382,80.8417 74.6716,81.5084 74.5,82.5C 73.8333,82.5 73.5,82.8333 73.5,83.5C 73.1667,83.5 72.8333,83.5 72.5,83.5C 72.6716,82.5084 72.3382,81.8417 71.5,81.5 Z"/></g>
<g><path style="opacity:1" fill="#db907d" d="M 73.5,80.5 C 73.8417,79.6618 74.5084,79.3284 75.5,79.5C 76.3382,79.8417 76.6716,80.5084 76.5,81.5C 75.8333,81.8333 75.1667,82.1667 74.5,82.5C 74.6716,81.5084 74.3382,80.8417 73.5,80.5 Z"/></g>
<g><path style="opacity:0.992" fill="#de875c" d="M 69.5,81.5 C 69.8333,81.5 70.1667,81.5 70.5,81.5C 70.1583,82.3382 69.4916,82.6716 68.5,82.5C 67.8333,82.8333 67.1667,83.1667 66.5,83.5C 66.5,83.1667 66.5,82.8333 66.5,82.5C 67.209,81.596 68.209,81.2627 69.5,81.5 Z"/></g>
<g><path style="opacity:0.792" fill="#decbc3" d="M 98.5,80.5 C 101.595,81.1187 101.929,82.1187 99.5,83.5C 98.8933,83.3764 98.56,83.0431 98.5,82.5C 98.5,81.8333 98.5,81.1667 98.5,80.5 Z"/></g>
<g><path style="opacity:0.392" fill="#eecabf" d="M 41.5,80.5 C 41.3284,81.4916 41.6618,82.1583 42.5,82.5C 41.3647,84.0878 40.0314,84.4212 38.5,83.5C 39.1882,82.1451 40.1882,81.1451 41.5,80.5 Z"/></g>
<g><path style="opacity:1" fill="#d6632e" d="M 70.5,81.5 C 70.8333,81.5 71.1667,81.5 71.5,81.5C 72.3382,81.8417 72.6716,82.5084 72.5,83.5C 71.5,83.5 70.5,83.5 69.5,83.5C 68.8333,83.5 68.5,83.1667 68.5,82.5C 69.4916,82.6716 70.1583,82.3382 70.5,81.5 Z"/></g>
<g><path style="opacity:1" fill="#e07e5e" d="M 68.5,82.5 C 68.5,83.1667 68.8333,83.5 69.5,83.5C 69.5,83.8333 69.5,84.1667 69.5,84.5C 68.791,85.404 67.791,85.7373 66.5,85.5C 65.8333,85.1667 65.1667,84.8333 64.5,84.5C 64.8417,83.6618 65.5084,83.3284 66.5,83.5C 67.1667,83.1667 67.8333,82.8333 68.5,82.5 Z"/></g>
<g><path style="opacity:1" fill="#ce7452" d="M 69.5,84.5 C 69.5,84.1667 69.5,83.8333 69.5,83.5C 70.5,83.5 71.5,83.5 72.5,83.5C 72.8333,83.5 73.1667,83.5 73.5,83.5C 74.5063,84.3957 74.5063,85.0623 73.5,85.5C 72.1667,85.1667 70.8333,84.8333 69.5,84.5 Z"/></g>
<g><path style="opacity:0.992" fill="#ecb899" d="M 63.5,84.5 C 63.3284,85.4916 63.6618,86.1583 64.5,86.5C 64.1583,87.3382 63.4916,87.6716 62.5,87.5C 62.1583,86.6618 61.4916,86.3284 60.5,86.5C 61.2905,85.5987 62.2905,84.9321 63.5,84.5 Z"/></g>
<g><path style="opacity:1" fill="#c68c72" d="M 63.5,84.5 C 63.8333,84.5 64.1667,84.5 64.5,84.5C 65.1667,84.8333 65.8333,85.1667 66.5,85.5C 66.1583,86.3382 65.4916,86.6716 64.5,86.5C 63.6618,86.1583 63.3284,85.4916 63.5,84.5 Z"/></g>
<g><path style="opacity:1" fill="#dba98c" d="M 74.5,82.5 C 75.3065,83.7281 76.3065,84.7281 77.5,85.5C 76.6618,85.8417 76.3284,86.5084 76.5,87.5C 75.2905,87.0679 74.2905,86.4013 73.5,85.5C 74.5063,85.0623 74.5063,84.3957 73.5,83.5C 73.5,82.8333 73.8333,82.5 74.5,82.5 Z"/></g>
<g><path style="opacity:0.82" fill="#e19d8f" d="M 77.5,85.5 C 79.153,85.6596 80.4863,86.3263 81.5,87.5C 80.5084,87.3284 79.8417,87.6618 79.5,88.5C 78.391,88.4431 77.391,88.1098 76.5,87.5C 76.3284,86.5084 76.6618,85.8417 77.5,85.5 Z"/></g>
<g><path style="opacity:1" fill="#c8816f" d="M 60.5,86.5 C 61.4916,86.3284 62.1583,86.6618 62.5,87.5C 62.1583,88.3382 61.4916,88.6716 60.5,88.5C 59.209,88.7373 58.209,88.404 57.5,87.5C 58.391,86.8902 59.391,86.5569 60.5,86.5 Z"/></g>
<g><path style="opacity:1" fill="#dd9e87" d="M 57.5,87.5 C 58.209,88.404 59.209,88.7373 60.5,88.5C 59.791,89.404 58.791,89.7373 57.5,89.5C 56.5084,89.6716 55.8417,89.3382 55.5,88.5C 56.1667,88.1667 56.8333,87.8333 57.5,87.5 Z"/></g>
<g><path style="opacity:0.973" fill="#de9c88" d="M 81.5,87.5 C 83.153,87.6596 84.4863,88.3263 85.5,89.5C 84.5084,89.3284 83.8417,89.6618 83.5,90.5C 81.847,90.3404 80.5137,89.6737 79.5,88.5C 79.8417,87.6618 80.5084,87.3284 81.5,87.5 Z"/></g>
<g><path style="opacity:1" fill="#dab19a" d="M 55.5,88.5 C 55.8417,89.3382 56.5084,89.6716 57.5,89.5C 56.4863,90.6737 55.153,91.3404 53.5,91.5C 53.5,90.8333 53.1667,90.5 52.5,90.5C 52.9731,89.0937 53.9731,88.427 55.5,88.5 Z"/></g>
<g><path style="opacity:0.804" fill="#e2ae94" d="M 85.5,89.5 C 87.153,89.6596 88.4863,90.3263 89.5,91.5C 88.8333,91.5 88.5,91.8333 88.5,92.5C 86.597,92.2041 84.9303,91.5375 83.5,90.5C 83.8417,89.6618 84.5084,89.3284 85.5,89.5 Z"/></g>
<g><path style="opacity:1" fill="#d4a697" d="M 52.5,90.5 C 53.1667,90.5 53.5,90.8333 53.5,91.5C 52.4863,92.6737 51.153,93.3404 49.5,93.5C 49.5,92.8333 49.5,92.1667 49.5,91.5C 50.391,90.8902 51.391,90.5569 52.5,90.5 Z"/></g>
<g><path style="opacity:0.953" fill="#dba089" d="M 49.5,91.5 C 49.5,92.1667 49.5,92.8333 49.5,93.5C 48.4863,94.6737 47.153,95.3404 45.5,95.5C 45.1583,94.6618 44.4916,94.3284 43.5,94.5C 45.0326,92.7549 47.0326,91.7549 49.5,91.5 Z"/></g>
<g><path style="opacity:0.925" fill="#dc9f86" d="M 89.5,91.5 C 90.4916,91.3284 91.1583,91.6618 91.5,92.5C 90.8333,92.5 90.5,92.8333 90.5,93.5C 89.5084,93.6716 88.8417,93.3382 88.5,92.5C 88.5,91.8333 88.8333,91.5 89.5,91.5 Z"/></g>
<g><path style="opacity:0.855" fill="#d7a08c" d="M 91.5,92.5 C 92.791,92.2627 93.791,92.596 94.5,93.5C 93.5084,93.3284 92.8417,93.6618 92.5,94.5C 91.5084,94.6716 90.8417,94.3382 90.5,93.5C 90.5,92.8333 90.8333,92.5 91.5,92.5 Z"/></g>
<g><path style="opacity:0.933" fill="#ce7d60" d="M 94.5,93.5 C 94.8333,93.5 95.1667,93.5 95.5,93.5C 95.6716,94.4916 95.3382,95.1583 94.5,95.5C 93.5084,95.6716 92.8417,95.3382 92.5,94.5C 92.8417,93.6618 93.5084,93.3284 94.5,93.5 Z"/></g>
<g><path style="opacity:0.553" fill="#e2b5aa" d="M 95.5,93.5 C 96.7095,93.9321 97.7095,94.5987 98.5,95.5C 97.5084,95.3284 96.8417,95.6618 96.5,96.5C 95.5084,96.6716 94.8417,96.3382 94.5,95.5C 95.3382,95.1583 95.6716,94.4916 95.5,93.5 Z"/></g>
<g><path style="opacity:0.961" fill="#d99987" d="M 43.5,94.5 C 44.4916,94.3284 45.1583,94.6618 45.5,95.5C 44.3285,96.3446 42.9952,97.0113 41.5,97.5C 41.5,96.8333 41.5,96.1667 41.5,95.5C 41.8417,94.6618 42.5084,94.3284 43.5,94.5 Z"/></g>
<g><path style="opacity:0.863" fill="#dd9f89" d="M 98.5,95.5 C 99.4916,95.3284 100.158,95.6618 100.5,96.5C 99.5084,96.3284 98.8417,96.6618 98.5,97.5C 97.5084,97.6716 96.8417,97.3382 96.5,96.5C 96.8417,95.6618 97.5084,95.3284 98.5,95.5 Z"/></g>
<g><path style="opacity:0.839" fill="#c6856d" d="M 41.5,95.5 C 41.5,96.1667 41.5,96.8333 41.5,97.5C 41.1667,97.5 40.8333,97.5 40.5,97.5C 39.5084,97.6716 38.8417,97.3382 38.5,96.5C 39.391,95.8902 40.391,95.5569 41.5,95.5 Z"/></g>
<g><path style="opacity:0.624" fill="#deae9c" d="M 98.5,97.5 C 98.8417,96.6618 99.5084,96.3284 100.5,96.5C 103.564,96.9811 104.398,98.3144 103,100.5C 101.385,99.6138 99.8853,98.6138 98.5,97.5 Z"/></g>
<g><path style="opacity:1" fill="#d0a08b" d="M 38.5,96.5 C 38.8417,97.3382 39.5084,97.6716 40.5,97.5C 40.1583,98.3382 39.4916,98.6716 38.5,98.5C 37.5084,98.6716 36.8417,98.3382 36.5,97.5C 36.8417,96.6618 37.5084,96.3284 38.5,96.5 Z"/></g>
<g><path style="opacity:0.286" fill="#f4cfc5" d="M 36.5,97.5 C 36.8417,98.3382 37.5084,98.6716 38.5,98.5C 37.1512,99.7965 35.8179,99.6298 34.5,98C 35.0944,97.5357 35.7611,97.369 36.5,97.5 Z"/></g>
</svg>
